<?xml version="1.0" encoding="UTF-8"?>
<svg width="23px" height="31px" viewBox="0 0 23 31" version="1.1" xmlns="http://www.w3.org/2000/svg" xmlns:xlink="http://www.w3.org/1999/xlink">
    <!-- Generator: Sketch 44.1 (41455) - http://www.bohemiancoding.com/sketch -->
    <title>Shape</title>
    <desc>Created with Sketch.</desc>
    <defs>
        <path d="M9.41941558,2.64537313 C9.41941558,1.52722388 10.5060779,0.619017639 11.8438052,0.619017639 C13.1793117,0.619017639 14.2681948,1.52727273 14.2681948,2.64537313 L14.2681948,4.68701764 C13.5011494,4.52483202 12.6952987,4.4313346 11.8438052,4.4313346 C11.0082662,4.4313346 10.2001364,4.52483202 9.41941558,4.68701764 L9.41941558,2.64537313 Z M14.8229805,27.6543826 C14.8229805,29.0262904 13.487474,30.1444396 11.8438052,30.1444396 C10.2024156,30.1444396 8.86690909,29.0281954 8.86690909,27.6543826 L8.86690909,26.4217856 L14.8226883,26.4217856 L14.8204056,27.6543826 L14.8229805,27.6543826 Z M15.6996039,24.9563853 L0.842590909,24.9563853 L2.04111039,23.4413569 C2.12786104,23.3306898 2.17808571,23.2047533 2.18492922,23.0711919 L2.71455584,13.6051946 C3.23504805,9.77375902 6.53610779,5.89670068 11.8437117,5.89670068 C17.0395169,5.89670068 20.4182571,9.85215794 20.9681922,13.5822366 L21.4567286,22.7107034 C21.4635773,22.8309102 21.5046688,22.9492119 21.5800052,23.0522491 L22.9337455,24.9545829 L15.6996039,24.9563853 Z" id="path-1"></path>
    </defs>
    <g id="Visuals" stroke="none" stroke-width="1" fill="none" fill-rule="evenodd">
        <mask id="mask-2" fill="white">
            <use xlink:href="#path-1"></use>
        </mask>
        <use id="Shape" fill="#F9A147" fill-rule="nonzero" xlink:href="#path-1"></use>
    </g>
</svg>