<?xml version="1.0" encoding="UTF-8"?>
<svg width="14px" height="14px" viewBox="0 0 14 14" version="1.1" xmlns="http://www.w3.org/2000/svg" xmlns:xlink="http://www.w3.org/1999/xlink">
    <!-- Generator: Sketch 44.1 (41455) - http://www.bohemiancoding.com/sketch -->
    <title>Shape</title>
    <desc>Created with Sketch.</desc>
    <defs></defs>
    <g id="Visuals" stroke="none" stroke-width="1" fill="none" fill-rule="evenodd">
        <g id="home-3-copy" transform="translate(-1027.000000, -36.000000)" fill-rule="nonzero" fill="#A7AEB0">
            <g id="Group-18">
                <g id="Group-28">
                    <g id="Group-12" transform="translate(1012.000000, 23.000000)">
                        <path d="M28.8961667,25.18 L25.19025,21.4735 C25.73275,20.6189167 26.046,19.6068333 26.046,18.5224167 C26.0465833,15.478 23.5685833,13 20.523,13 C17.4774167,13 15,15.478 15,18.523 C15,21.5685833 17.4774167,24.0465833 20.523,24.0465833 C21.5543333,24.0465833 22.5185833,23.7625 23.34575,23.269 L27.07675,27 L28.8961667,25.18 Z M17.058,18.523 C17.058,16.61375 18.6125833,15.0591667 20.5224167,15.0591667 C22.4328333,15.0591667 23.9874167,16.6131667 23.9874167,18.523 C23.9874167,20.4334167 22.4328333,21.9874167 20.5224167,21.9874167 C18.6125833,21.9874167 17.058,20.4334167 17.058,18.523 Z" id="Shape"></path>
                    </g>
                </g>
            </g>
        </g>
    </g>
</svg>