<?xml version="1.0" encoding="UTF-8"?>
<svg width="36px" height="28px" viewBox="0 0 36 28" version="1.1" xmlns="http://www.w3.org/2000/svg" xmlns:xlink="http://www.w3.org/1999/xlink">
    <!-- Generator: Sketch 45 (43475) - http://www.bohemiancoding.com/sketch -->
    <title>Artboard Copy 6</title>
    <desc>Created with Sketch.</desc>
    <defs></defs>
    <g id="Symbols" stroke="none" stroke-width="1" fill="none" fill-rule="evenodd">
        <g id="Artboard-Copy-6">
            <g id="Group-22" transform="translate(7.000000, 4.000000)">
                <path d="M11.3095238,16.9642857 L11.3095238,19.047619 L0,19.047619 L0,16.9642857 L0.892857143,16.9642857 L0.892857143,-1.77635684e-15 L11.3095238,-1.77635684e-15 L11.3095238,16.9642857 Z M9.22619048,14.7321429 L9.22619048,13.2440476 L2.97619048,13.2440476 L2.97619048,14.7321429 L9.22619048,14.7321429 Z M9.22619048,11.1607143 L9.22619048,9.67261905 L2.97619048,9.67261905 L2.97619048,11.1607143 L9.22619048,11.1607143 Z M9.22619048,7.58928571 L9.22619048,6.10119048 L2.97619048,6.10119048 L2.97619048,7.58928571 L9.22619048,7.58928571 Z M9.22619048,4.01785714 L9.22619048,2.5297619 L2.97619048,2.5297619 L2.97619048,4.01785714 L9.22619048,4.01785714 Z" id="Page-1" fill="#919799"></path>
                <path d="M21.797619,17.1785714 L22.6904762,17.1785714 L22.6904762,19.2619048 L9,19.2619048 L9,17.1785714 L10.4880952,17.1785714 L10.4880952,3.78571429 L13.1666667,3.78571429 L13.1666667,2 L19.1190476,2 L19.1190476,3.78571429 L21.797619,3.78571429 L21.797619,17.1785714 Z M19.7142857,14.9464286 L19.7142857,13.4583333 L12.5714286,13.4583333 L12.5714286,14.9464286 L19.7142857,14.9464286 Z M19.7142857,11.375 L19.7142857,9.88690476 L12.5714286,9.88690476 L12.5714286,11.375 L19.7142857,11.375 Z M19.7142857,7.80357143 L19.7142857,6.31547619 L12.5714286,6.31547619 L12.5714286,7.80357143 L19.7142857,7.80357143 Z" id="Page-1-Copy" fill="#026E91"></path>
            </g>
        </g>
    </g>
</svg>