<?xml version="1.0" encoding="UTF-8"?>
<svg width="17px" height="19px" viewBox="0 0 17 19" version="1.1" xmlns="http://www.w3.org/2000/svg" xmlns:xlink="http://www.w3.org/1999/xlink">
    <!-- Generator: Sketch 44.1 (41455) - http://www.bohemiancoding.com/sketch -->
    <title>Combined Shape</title>
    <desc>Created with Sketch.</desc>
    <defs></defs>
    <g id="Symbols" stroke="none" stroke-width="1" fill="none" fill-rule="evenodd">
        <path d="M7.53213333,0.120504706 L7.53303093,0.120511188 C7.60828427,0.0986830941 7.82522693,0.0916978 8.51229893,0.0960637765 L9.39593627,0.100429529 L9.54557253,0.172028235 C9.80410853,0.296891765 9.9988968,0.557951765 10.0759272,0.875788235 C10.1255105,1.08791765 10.1255105,10.5346685 10.0759272,10.7468471 C9.99890587,11.0637894 9.80410853,11.3257458 9.54557253,11.4506071 L9.39593627,11.5222058 L7.5595736,11.5222058 L7.40993733,11.4506071 C7.15140133,11.3257435 6.95661307,11.0646835 6.87958267,10.7468471 C6.82999933,10.5347176 6.82999933,1.08796682 6.87958267,0.875788235 C6.96811867,0.504707059 7.21516267,0.220918588 7.53213333,0.120504706 Z M11.3333333,3.70567059 L11.333378,3.70478005 L11.333378,2.65611416 L11.3856179,2.66921165 C11.5148859,2.70937988 11.9637992,2.89973306 12.2311979,3.02895988 C13.9445259,3.86026576 15.3638445,5.29914694 16.1615979,7.01404224 C17.5420659,9.98720694 17.0363952,13.4834305 14.8741992,15.9377834 C12.7029592,18.4010418 9.32789252,19.3894575 6.14299919,18.4927246 C3.81263919,17.8353246 1.83191252,16.1527516 0.81633252,13.9707246 C-0.469298147,11.2009716 -0.126646147,7.96940694 1.71148452,5.52801871 C2.50046585,4.48190106 3.57271252,3.59913871 4.74677785,3.02895988 C5.00798852,2.90409635 5.52949412,2.68056694 5.56314052,2.68056694 C5.56933827,2.68056694 5.5764216,3.15295165 5.5764216,3.72923282 L5.5764216,4.77789871 L5.36569187,4.89228318 C4.25885587,5.47989729 3.28665987,6.45258553 2.69963853,7.55451847 C1.37150787,10.0578244 1.84077587,13.1025855 3.8648412,15.0986361 C4.32701453,15.5544126 4.87774653,15.9569444 5.4399932,16.2477114 C7.9784332,17.5574596 11.0659279,17.0946867 13.0899932,15.0986361 C13.9399932,14.2603785 14.5252692,13.238782 14.8130225,12.0897067 C15.3611932,9.895542 14.7102972,7.59909024 13.0899932,6.00121259 C12.6437545,5.56025612 12.0903705,5.15423729 11.5555732,4.87221024 L11.3333333,4.75608 L11.3333333,3.70567059 Z" id="Combined-Shape" fill="#B5D451" fill-rule="nonzero"></path>
    </g>
</svg>