<?xml version="1.0" encoding="UTF-8"?>
<svg width="20px" height="19px" viewBox="0 0 20 19" version="1.1" xmlns="http://www.w3.org/2000/svg" xmlns:xlink="http://www.w3.org/1999/xlink">
    <!-- Generator: Sketch 44.1 (41455) - http://www.bohemiancoding.com/sketch -->
    <title>Page 1 Copy 3</title>
    <desc>Created with Sketch.</desc>
    <defs></defs>
    <g id="Symbols" stroke="none" stroke-width="1" fill="none" fill-rule="evenodd">
        <path d="M3.24324324,0 L20,0 L20,17.027027 C20,18.0753784 19.1564595,18.9189189 18.1081081,18.9189189 L1.35135135,18.9189189 C2.3997027,18.9189189 3.24324324,18.0753784 3.24324324,17.027027 L3.24324324,0 Z M0,10.8108108 L2.7027027,10.8108108 L2.7027027,17.027027 C2.7027027,17.7850541 2.10937838,18.3783784 1.35135135,18.3783784 C0.593324324,18.3783784 0,17.7850541 0,17.027027 L0,10.8108108 Z M5.94594595,2.7027027 L11.3513514,2.7027027 L11.3513514,6.48648649 L5.94594595,6.48648649 L5.94594595,2.7027027 Z M13.5135135,2.7027027 L17.2972973,2.7027027 C17.5960811,2.7027027 17.8378378,2.94446757 17.8378378,3.24324324 C17.8378378,3.54201892 17.596073,3.78378378 17.2972973,3.78378378 L13.5135135,3.78378378 C13.2147297,3.78378378 12.972973,3.54201892 12.972973,3.24324324 C12.972973,2.94446757 13.2147378,2.7027027 13.5135135,2.7027027 Z M13.5135135,5.40540541 L17.2972973,5.40540541 C17.5960811,5.40540541 17.8378378,5.64717027 17.8378378,5.94594595 C17.8378378,6.24472162 17.596073,6.48648649 17.2972973,6.48648649 L13.5135135,6.48648649 C13.2147297,6.48648649 12.972973,6.24472162 12.972973,5.94594595 C12.972973,5.64717027 13.2147378,5.40540541 13.5135135,5.40540541 Z M5.94594595,8.64864865 L17.2972973,8.64864865 C17.5960811,8.64864865 17.8378378,8.89041351 17.8378378,9.18918919 C17.8378378,9.48796486 17.596073,9.72972973 17.2972973,9.72972973 L5.94594595,9.72972973 C5.64716216,9.72972973 5.40540541,9.48796486 5.40540541,9.18918919 C5.40540541,8.89041351 5.64717027,8.64864865 5.94594595,8.64864865 Z M5.94594595,11.6216216 L17.2972973,11.6216216 C17.5960811,11.6216216 17.8378378,11.8633865 17.8378378,12.1621622 C17.8378378,12.4609378 17.596073,12.7027027 17.2972973,12.7027027 L5.94594595,12.7027027 C5.64716216,12.7027027 5.40540541,12.4609378 5.40540541,12.1621622 C5.40540541,11.8633865 5.64717027,11.6216216 5.94594595,11.6216216 Z M5.94594595,14.5945946 L17.2972973,14.5945946 C17.5960811,14.5945946 17.8378378,14.8363595 17.8378378,15.1351351 C17.8378378,15.4339108 17.596073,15.6756757 17.2972973,15.6756757 L5.94594595,15.6756757 C5.64716216,15.6756757 5.40540541,15.4339108 5.40540541,15.1351351 C5.40540541,14.8363595 5.64717027,14.5945946 5.94594595,14.5945946 Z" id="Page-1-Copy-3" fill="#026E91"></path>
    </g>
</svg>