<?xml version="1.0" encoding="UTF-8"?>
<svg width="36px" height="28px" viewBox="0 0 36 28" version="1.1" xmlns="http://www.w3.org/2000/svg" xmlns:xlink="http://www.w3.org/1999/xlink">
    <!-- Generator: Sketch 45 (43475) - http://www.bohemiancoding.com/sketch -->
    <title>Artboard Copy 3</title>
    <desc>Created with Sketch.</desc>
    <defs></defs>
    <g id="Symbols" stroke="none" stroke-width="1" fill="none" fill-rule="evenodd">
        <g id="Artboard-Copy-3">
            <g id="Group-25" transform="translate(7.000000, 2.000000)">
                <path d="M9.84208058,12.9882125 C9.39044212,13.4347187 9.39044212,14.1783739 9.84208058,14.6248801 C10.293719,15.0713863 11.045922,15.0713863 11.4975605,14.6248801 C11.949199,14.1783739 11.949199,13.4347187 11.4975605,12.9882125 C11.045922,12.5175354 10.3181678,12.5175354 9.84208058,12.9882125 Z" id="Fill-1" fill="#026E91"></path>
                <path d="M12.802437,11.6999478 C13.2540755,12.146454 14.0062785,12.146454 14.457917,11.6999478 C14.9354401,11.2534416 14.9354401,10.5097863 14.4334646,10.0391092 C12.3522677,7.98014265 8.96637842,7.98014265 6.88381921,10.0391092 C6.43218075,10.4856154 6.43218075,11.2292707 6.88381921,11.6757769 C7.33545767,12.1222831 8.08766068,12.1222831 8.53929914,11.6757769 C9.71869189,10.5097863 11.5999911,10.5097863 12.7780583,11.6757769 L12.802437,11.6999478 Z" id="Fill-5" fill="#026E91"></path>
                <path d="M15.7362828,8.77359575 C16.1879213,9.22010196 16.9401243,9.22010196 17.3917628,8.77359575 C17.8678499,8.32708955 17.8678499,7.60760519 17.3917628,7.11133753 C13.6795347,3.46677523 7.63436899,3.46677523 3.92214091,7.11133753 C3.47050245,7.55784374 3.47050245,8.30149898 3.92214091,8.74800519 C4.37377937,9.19451139 5.12598238,9.19451139 5.57762084,8.74800519 C8.3621601,5.99510842 12.9015574,5.99510842 15.7116868,8.74800519 L15.7362828,8.77359575 Z" id="Fill-6" fill="#026E91"></path>
                <path d="M2.64370141,5.84687972 C7.05772542,1.48301507 14.2564728,1.48301507 18.6719696,5.84687972 L18.6964184,5.87105425 C19.1480568,6.31756045 19.9002598,6.31756045 20.3518983,5.87105425 C20.8279855,5.42454804 20.8279855,4.6808928 20.3260099,4.2102157 C15.0087826,-1.07243394 6.30408274,-1.07243394 0.986855442,4.2102157 C0.535216981,4.65672191 0.535216981,5.40037715 0.986855442,5.84688336 C1.4399299,6.29338956 2.1921329,6.29338956 2.64377136,5.84688336 L2.64370141,5.84687972 Z" id="Fill-7" fill="#026E91"></path>
                <path d="M19.6613325,17.8071014 L19.6613694,17.8071014 C20.4754306,17.8071014 21.1341798,18.4597882 21.1356195,19.263179 L21.1356195,22.3203596 C21.1356195,23.1251701 20.4768666,23.7764372 19.6628054,23.7764372 L1.69410448,23.7764372 C0.880043277,23.7764372 0.221290327,23.1251701 0.221290327,22.3203596 L0.221290327,19.263179 C0.221290327,18.4583685 0.880043277,17.8071014 1.69410448,17.8071014 L19.6613325,17.8071014 Z M3.57120612,22.2477741 C4.38526732,22.2477741 5.04402027,21.596507 5.04402027,20.7916965 C5.04402027,19.986886 4.38526732,19.3356189 3.57120612,19.3356189 C2.75714492,19.3356189 2.09839197,19.986886 2.09839197,20.7916965 C2.09839197,21.596507 2.75714492,22.2477741 3.57120612,22.2477741 Z" id="Fill-9" fill="#919799"></path>
            </g>
        </g>
    </g>
</svg>