<?xml version="1.0" encoding="UTF-8"?>
<svg width="36px" height="28px" viewBox="0 0 36 28" version="1.1" xmlns="http://www.w3.org/2000/svg" xmlns:xlink="http://www.w3.org/1999/xlink">
    <!-- Generator: Sketch 45.2 (43514) - http://www.bohemiancoding.com/sketch -->
    <title>Artboard 4 Copy 2</title>
    <desc>Created with Sketch.</desc>
    <defs></defs>
    <g id="Symbols" stroke="none" stroke-width="1" fill="none" fill-rule="evenodd">
        <g id="Artboard-4-Copy-2" fill-rule="nonzero" fill="#026E91">
            <path d="M8.09197577,13.7559652 L13.2442259,19.6328865 C13.4144303,19.8459127 13.5000821,20.1435083 13.5000821,20.3993646 C13.5000821,20.696949 13.3727134,20.9527968 13.1596844,21.1230013 C12.9883752,21.2932058 12.7336209,21.3788576 12.4777647,21.3788576 C12.1801802,21.3788576 11.9243155,21.2514888 11.7112866,21.0384599 L5.96171715,14.4368421 C5.62131947,14.0536031 5.62131947,13.4573379 5.96171715,13.0740988 L11.7112866,6.47248105 C12.0944975,6.04643158 12.7336041,6.00359022 13.1596563,6.38682925 C13.5857058,6.77004018 13.6285472,7.40914672 13.2453081,7.83519901 L8.09197577,13.7559652 Z M23.9778565,6.47237142 L29.7273275,13.1181012 C30.0677252,13.5013402 30.0677252,14.0976054 29.7273275,14.4808444 L23.9777581,21.0824622 C23.8075452,21.2954799 23.5099608,21.4228599 23.21128,21.4228599 C22.9554125,21.4228599 22.6995647,21.3372081 22.5293602,21.1670036 C22.3163397,20.9539775 22.1889626,20.6992232 22.1889626,20.4433669 C22.1889626,20.1457825 22.2746144,19.8899178 22.4448188,19.6768889 L27.5981512,13.7561226 L22.4020899,7.83619976 C22.0188481,7.41014748 22.0616894,6.77106904 22.4877417,6.38783001 C22.7007679,6.21762555 22.9983635,6.13197375 23.2542198,6.13197375 C23.5518042,6.13197375 23.807652,6.25934247 23.9778565,6.47237142 Z M19.6768536,4.51330677 L19.6768564,4.51330677 C20.2731188,4.6406783 20.6135249,5.1523852 20.4861477,5.70583713 L17.2061411,22.1463504 C17.1204865,22.6580573 16.6944342,22.998455 16.1838236,22.998455 L15.9707946,22.998455 C15.4173596,22.8699872 15.0341262,22.3165633 15.1615033,21.7631114 L18.44151,5.32259809 C18.5699778,4.76916303 19.1234017,4.38592961 19.6768536,4.51330677 Z" id="Combined-Shape"></path>
        </g>
    </g>
</svg>