<?xml version="1.0" encoding="UTF-8"?>
<svg width="16px" height="17px" viewBox="0 0 16 17" version="1.1" xmlns="http://www.w3.org/2000/svg" xmlns:xlink="http://www.w3.org/1999/xlink">
    <!-- Generator: Sketch 44.1 (41455) - http://www.bohemiancoding.com/sketch -->
    <title>Group 39</title>
    <desc>Created with Sketch.</desc>
    <defs></defs>
    <g id="Symbols" stroke="none" stroke-width="1" fill="none" fill-rule="evenodd">
        <g id="Group-39" fill-rule="nonzero" fill="#5C6670">
            <path d="M4,1.04382324 L4,4.95617676 C4,5.37039032 4.33578644,5.70617676 4.75,5.70617676 C5.16421356,5.70617676 5.5,5.37039032 5.5,4.95617676 L5.5,1.04382324 C5.5,0.62960968 5.16421356,0.293823242 4.75,0.293823242 C4.33578644,0.293823242 4,0.62960968 4,1.04382324 Z" id="Line"></path>
            <path d="M11,1.04382324 L11,4.95617676 C11,5.37039032 11.3357864,5.70617676 11.75,5.70617676 C12.1642136,5.70617676 12.5,5.37039032 12.5,4.95617676 L12.5,1.04382324 C12.5,0.62960968 12.1642136,0.293823242 11.75,0.293823242 C11.3357864,0.293823242 11,0.62960968 11,1.04382324 Z" id="Line-Copy"></path>
            <path d="M1.5,4.5 L1.5,15.5 L14.5,15.5 L14.5,4.5 L1.5,4.5 Z M0,3 L16,3 L16,17 L0,17 L0,3 Z" id="Rectangle-2"></path>
            <polygon id="Line" points="0.75 8.5 15.25 8.5 15.25 7 0.75 7"></polygon>
        </g>
    </g>
</svg>