<?xml version="1.0" encoding="UTF-8"?>
<svg width="36px" height="28px" viewBox="0 0 36 28" version="1.1" xmlns="http://www.w3.org/2000/svg" xmlns:xlink="http://www.w3.org/1999/xlink">
    <!-- Generator: Sketch 45.2 (43514) - http://www.bohemiancoding.com/sketch -->
    <title>Artboard 4</title>
    <desc>Created with Sketch.</desc>
    <defs></defs>
    <g id="Symbols" stroke="none" stroke-width="1" fill="none" fill-rule="evenodd">
        <g id="Artboard-4" fill="#026E91">
            <path d="M27.9999533,4.40670866 L27.999905,11.4846657 L11.714755,14.8084279 L11.7165513,14.8119768 C11.4236555,14.9255786 11.2161173,15.2060388 11.2161173,15.5344163 C11.2161173,15.962218 11.5683163,16.3101122 12.0013603,16.3101122 L27.9999303,16.3101122 L27.9999303,18.7232422 L12.0022803,18.7232422 C10.2225173,18.7232422 8.77423028,17.2935178 8.77423028,15.5353478 C8.77423028,14.5652791 9.21626728,13.6964069 9.91075228,13.1115393 L6.95410297,4.397825 L5.81399297,4.397825 L5,3 L8.94863928,3 L9.64043328,4.93034491 L27.9999533,4.40670866 Z M16.1540333,21.6786845 C16.1540333,22.9780167 15.0875923,24.0306969 13.7723833,24.0306969 C12.4571743,24.0306969 11.3914233,22.9781076 11.3914233,21.6786845 C11.3914233,20.3792614 12.4569673,19.3259907 13.7723833,19.3259907 C15.0877993,19.3259907 16.1540333,20.3794659 16.1540333,21.6786845 Z M27.9999533,21.6786845 C27.9999533,22.9780167 26.9335123,24.0306969 25.6183033,24.0306969 C24.3030943,24.0306969 23.2373433,22.9781076 23.2373433,21.6786845 C23.2373433,20.3792614 24.3028873,19.3259907 25.6183033,19.3259907 C26.9337193,19.3259907 27.9999533,20.3794659 27.9999533,21.6786845 Z" id="Combined-Shape"></path>
        </g>
    </g>
</svg>