<?xml version="1.0" encoding="UTF-8"?>
<svg width="21px" height="21px" viewBox="0 0 21 21" version="1.1" xmlns="http://www.w3.org/2000/svg" xmlns:xlink="http://www.w3.org/1999/xlink">
    <!-- Generator: Sketch 45 (43475) - http://www.bohemiancoding.com/sketch -->
    <title>Artboard 2 Copy 7</title>
    <desc>Created with Sketch.</desc>
    <defs></defs>
    <g id="Symbols" stroke="none" stroke-width="1" fill="none" fill-rule="evenodd">
        <g id="Artboard-2-Copy-7" fill-rule="nonzero" fill="#026E91">
            <path d="M18.748385,17.9999628 L17.3526862,17.9999628 L17.3526862,5.43827092 L18.748385,5.43827092 C19.1394784,5.43827092 19.4556879,5.75449057 19.4556879,6.14559652 L19.4556879,17.3115448 C19.454961,17.6837431 19.1387526,17.9999628 18.748385,17.9999628 Z M4.7913975,17.9999628 L4.7913975,5.43827092 L6.87545487,5.43827092 L8.27115362,3 L13.1466085,3 L14.5423072,5.43827092 L16.6263646,5.43827092 L16.6263646,17.9999628 L4.7913975,17.9999628 Z M12.476487,4.04252738 L8.97774937,4.04252738 L8.27044647,5.43827092 L13.1459013,5.43827092 L12.476487,4.04252738 Z M2,17.3115821 L2,6.14563374 C2,5.75452779 2.31620951,5.43830814 2.70730291,5.43830814 L4.10300166,5.43830814 L4.10300166,18 L2.70730291,18 C2.31620951,18 2,17.6837803 2,17.3115821 L2,17.3115821 Z" id="Shape-Copy"></path>
        </g>
    </g>
</svg>