<?xml version="1.0" encoding="UTF-8"?>
<svg width="36px" height="28px" viewBox="0 0 36 28" version="1.1" xmlns="http://www.w3.org/2000/svg" xmlns:xlink="http://www.w3.org/1999/xlink">
    <!-- Generator: Sketch 45 (43475) - http://www.bohemiancoding.com/sketch -->
    <title>Artboard Copy</title>
    <desc>Created with Sketch.</desc>
    <defs></defs>
    <g id="Symbols" stroke="none" stroke-width="1" fill="none" fill-rule="evenodd">
        <g id="Artboard-Copy">
            <g id="Group-21" transform="translate(6.000000, 4.000000)">
                <path d="M22.4687055,19.7646568 L20.6460871,19.7646568 L20.6460871,3.2127805 L22.4687055,3.2127805 C22.9794274,3.2127805 23.3923599,3.6294464 23.3923599,4.14478601 L23.3923599,18.857565 C23.3914106,19.3479909 22.9784797,19.7646568 22.4687055,19.7646568 Z M0.597285068,18.857614 L0.597285068,4.14483505 C0.597285068,3.62949544 1.01021748,3.21282954 1.52093945,3.21282954 L3.34355782,3.21282954 L3.34355782,19.7647059 L1.52093945,19.7647059 C1.01021748,19.7647059 0.597285068,19.34804 0.597285068,18.857614 L0.597285068,18.857614 Z" id="Shape" fill="#919799" fill-rule="nonzero"></path>
                <path d="M4.2425218,19.7646568 L4.2425218,3.2127805 L6.96405555,3.2127805 L8.78667391,0 L15.1534444,0 L16.9760628,3.2127805 L19.6975965,3.2127805 L19.6975965,19.7646568 L4.2425218,19.7646568 Z M14.2783446,1.37368313 L9.70940484,1.37368313 L8.78575045,3.2127805 L15.1525209,3.2127805 L14.2783446,1.37368313 Z" id="Combined-Shape" fill="#026E91"></path>
            </g>
        </g>
    </g>
</svg>