<?xml version="1.0" encoding="UTF-8"?>
<svg width="20px" height="20px" viewBox="0 0 20 20" version="1.1" xmlns="http://www.w3.org/2000/svg" xmlns:xlink="http://www.w3.org/1999/xlink">
    <!-- Generator: Sketch 44.1 (41455) - http://www.bohemiancoding.com/sketch -->
    <title>check-box</title>
    <desc>Created with Sketch.</desc>
    <defs></defs>
    <g id="Symbols" stroke="none" stroke-width="1" fill="none" fill-rule="evenodd">
        <g id="form/check-box" fill-rule="nonzero" fill="#01ABDB">
            <g id="check-box">
                <path d="M1,1.99079514 L1,18.0092049 C1,18.5524218 1.44650875,19 1.99079514,19 L18.0092049,19 C18.5524218,19 19,18.5534913 19,18.0092049 L19,1.99079514 C19,1.4475782 18.5534913,1 18.0092049,1 L1.99079514,1 C1.4475782,1 1,1.44650875 1,1.99079514 Z M0,1.99079514 C0,0.891309342 0.898212381,0 1.99079514,0 L18.0092049,0 C19.1086907,0 20,0.898212381 20,1.99079514 L20,18.0092049 C20,19.1086907 19.1017876,20 18.0092049,20 L1.99079514,20 C0.891309342,20 0,19.1017876 0,18.0092049 L0,1.99079514 Z" id="Rectangle-4"></path>
                <polygon id="Path-2" points="6.06066017 8.18825263 3.93933983 10.309573 8.13108731 14.5013205 15.5717476 7.06066017 13.4504273 4.93933983 8.13108731 10.2586798"></polygon>
            </g>
        </g>
    </g>
</svg>