<?xml version="1.0" encoding="UTF-8"?>
<svg width="36px" height="28px" viewBox="0 0 36 28" version="1.1" xmlns="http://www.w3.org/2000/svg" xmlns:xlink="http://www.w3.org/1999/xlink">
    <!-- Generator: Sketch 45 (43475) - http://www.bohemiancoding.com/sketch -->
    <title>Artboard Copy 19</title>
    <desc>Created with Sketch.</desc>
    <defs></defs>
    <g id="Symbols" stroke="none" stroke-width="1" fill="none" fill-rule="evenodd">
        <g id="Artboard-Copy-19" fill-rule="nonzero" fill="#5C6670">
            <path d="M10.2121531,21.9901287 C10.3535925,22.1315681 10.5361275,22.1924104 10.7178574,22.1924104 C10.8995873,22.1924104 11.0821264,22.1315681 11.2235618,21.9901287 L18.1011409,15.1125496 L24.7764382,21.7878469 C24.9178777,21.9292864 25.1004127,21.9901287 25.2821426,21.9901287 C25.4638725,21.9901287 25.6464115,21.9292864 25.7878469,21.7878469 C26.0707177,21.5049761 26.0707177,21.059309 25.7878469,20.7764382 L19.1125496,14.1011409 L25.7878469,7.42584351 C26.0707177,7.14297273 26.0707177,6.69730561 25.7878469,6.41443482 C25.5049761,6.13156404 25.059309,6.13156404 24.7764382,6.41443482 L18.1011409,13.0897322 L11.2235618,6.21215309 C10.940691,5.9292823 10.4950239,5.9292823 10.2121531,6.21215309 C9.9292823,6.49502387 9.9292823,6.94069099 10.2121531,7.22356178 L17.1103649,14.1011409 L10.2121531,20.9993527 C9.949025,21.2616919 9.949025,21.7073388 10.2121531,21.9902096 L10.2121531,21.9901287 Z" id="Shape"></path>
        </g>
    </g>
</svg>