<?xml version="1.0" encoding="UTF-8"?>
<svg width="36px" height="28px" viewBox="0 0 36 28" version="1.1" xmlns="http://www.w3.org/2000/svg" xmlns:xlink="http://www.w3.org/1999/xlink">
    <!-- Generator: Sketch 45 (43475) - http://www.bohemiancoding.com/sketch -->
    <title>Artboard Copy 17</title>
    <desc>Created with Sketch.</desc>
    <defs></defs>
    <g id="Symbols" stroke="none" stroke-width="1" fill="none" fill-rule="evenodd">
        <g id="Artboard-Copy-17" fill-rule="nonzero" fill="#5C6670">
            <path d="M20.5380792,15.8687561 C20.1568586,15.9048582 19.8665808,16.2254444 19.8680226,16.608129 L19.8680226,21.0443661 C19.8651346,21.2422075 19.9416715,21.4328326 20.0803039,21.5743486 C20.2203818,21.7144265 20.409554,21.7938499 20.6074028,21.7938499 C20.8052516,21.7938499 20.9944275,21.7144265 21.1345017,21.5743486 C21.2731341,21.4328289 21.3496703,21.2422075 21.3467831,21.0443661 L21.3467831,18.3872449 L27.4813596,24.5218215 C27.619992,24.6647866 27.809168,24.7456555 28.0084585,24.7456555 C28.2062999,24.7470995 28.396925,24.6676739 28.5369992,24.5261542 C28.6770771,24.3846346 28.7536133,24.1940131 28.7507223,23.99473 C28.747834,23.7968886 28.6655207,23.6077053 28.5211138,23.4705146 L22.3983672,17.347768 L25.0439172,17.347768 C25.2417586,17.350656 25.4323837,17.2741191 25.5738997,17.1354867 C25.7139776,16.9954088 25.793401,16.8062366 25.793401,16.6083878 C25.793401,16.410539 25.7139776,16.2213631 25.5738997,16.0812889 C25.43238,15.9426565 25.2417586,15.8661203 25.0439172,15.8690075 L20.6076801,15.8690075 C20.5845747,15.8675635 20.5614693,15.8675635 20.5383639,15.8690075 L20.5380792,15.8687561 Z M10.6375641,16.0013603 C10.4411682,16.010025 10.2563434,16.0966691 10.1249199,16.2425215 C9.99206201,16.3869284 9.92419128,16.5789953 9.93285673,16.7753875 C9.94152218,16.9717797 10.0281656,17.1566082 10.174018,17.2880317 C10.3184249,17.4208896 10.5104918,17.4887603 10.706884,17.4800949 L13.352434,17.4800949 L7.2296874,23.6028415 C7.08528048,23.7400284 7.0029661,23.9292044 7.00007885,24.1270568 C6.99719086,24.32634 7.07372778,24.5169651 7.21380197,24.6584811 C7.35387986,24.8000007 7.54449757,24.8794279 7.74234266,24.8779824 C7.94162582,24.8779824 8.13080915,24.7971135 8.26944156,24.6541483 L14.4040181,18.5195718 L14.4040181,21.176693 C14.4011301,21.3745344 14.4776671,21.5651595 14.6162995,21.7066754 C14.7563774,21.8467533 14.9455496,21.9261767 15.1433984,21.9261767 C15.3412472,21.9261767 15.5304231,21.8467533 15.6704973,21.7066754 C15.8091297,21.5651558 15.8856659,21.3745344 15.8827786,21.176693 L15.8827786,16.7404559 C15.8827786,16.3317675 15.552083,16.001083 15.1434058,16.001083 L10.7071686,16.001083 C10.6840632,15.999639 10.6609578,15.999639 10.6378524,16.001083 L10.6375641,16.0013603 Z M27.9088488,3.00766566 C27.7456655,3.03077107 27.5954804,3.10875272 27.4814174,3.22716698 L21.3468408,9.36174355 L21.3468408,6.71619354 C21.3511732,6.5039122 21.2645264,6.29885453 21.1071214,6.15445501 C20.9497163,6.01148988 20.7388804,5.94217367 20.5266028,5.96527908 C20.1453821,6.00715715 19.8594297,6.33352003 19.8681173,6.71618615 L19.8681173,11.1524233 C19.8681173,11.5611116 20.1988129,11.8917961 20.6074901,11.8917961 L25.0437273,11.8917961 C25.2415687,11.8946841 25.4321938,11.8181472 25.5737097,11.6795148 C25.7137876,11.5394369 25.793211,11.3502647 25.793211,11.1524159 C25.793211,10.9545671 25.7137876,10.7653912 25.5737097,10.625317 C25.4321901,10.4866846 25.2415687,10.4101484 25.0437273,10.4130356 L22.3866061,10.4130356 L28.5211826,4.27845906 C28.7565694,4.05751227 28.8215529,3.70947468 28.681475,3.41779209 C28.5413971,3.12752909 28.2280176,2.96145116 27.9089043,3.00766197 L27.9088488,3.00766566 Z M7.66783049,3.00347068 C7.38045844,3.03090843 7.13496447,3.22441747 7.04110109,3.49733477 C6.94579223,3.77171234 7.01943968,4.07496982 7.22883155,4.27426777 L13.3634081,10.4088443 L10.7062869,10.4088443 C10.5084455,10.4059563 10.3178204,10.4824933 10.1763045,10.6211257 C10.0362266,10.7612036 9.95680315,10.9503758 9.95680315,11.1482246 C9.95680315,11.3460734 10.0362266,11.5352493 10.1763045,11.6753235 C10.3178241,11.8139559 10.5084455,11.8904921 10.7062869,11.8876048 L15.142524,11.8876048 C15.5512124,11.8876048 15.8818969,11.5569092 15.8818969,11.148232 L15.8818969,6.71199485 C15.8862293,6.49971351 15.7995825,6.29465585 15.6421774,6.15025633 C15.4847723,6.00729119 15.2739365,5.93797499 15.0616588,5.96108039 C14.6804382,6.00295847 14.3944857,6.32932134 14.4031734,6.71198746 L14.4031734,9.35753747 L8.26859681,3.2229609 C8.1126335,3.06266856 7.8917015,2.98179966 7.66785637,3.00345959 L7.66783049,3.00347068 Z" id="Shape"></path>
        </g>
    </g>
</svg>