<?xml version="1.0" encoding="UTF-8"?>
<svg width="21px" height="21px" viewBox="0 0 21 21" version="1.1" xmlns="http://www.w3.org/2000/svg" xmlns:xlink="http://www.w3.org/1999/xlink">
    <!-- Generator: Sketch 45 (43475) - http://www.bohemiancoding.com/sketch -->
    <title>Artboard 2 Copy</title>
    <desc>Created with Sketch.</desc>
    <defs></defs>
    <g id="Symbols" stroke="none" stroke-width="1" fill="none" fill-rule="evenodd">
        <g id="Artboard-2-Copy" fill="#B5D451">
            <path d="M7.41801779,19 L7.41801779,15.3697638 L7.15261475,15.3697638 C6.62003882,15.3558537 6.07867362,15.3945588 5.55554691,15.3141267 L5.55496046,15.3141267 C4.85306354,15.2016449 4.21210703,14.835782 3.74686053,14.281826 C3.28165903,13.7272818 3.0221206,13.0209423 3.01450118,12.2873555 C2.99516627,10.557772 2.99516627,8.82694995 3.01450118,7.09628272 C3.03559394,5.34858594 4.38547769,4 6.10274513,4 L13.318498,4 L14.8857183,4 C16.484586,4 17.7191354,5.08369895 17.9681148,6.72008437 C17.9962374,6.97346867 18.0061966,7.22867977 17.9962374,7.48327162 L17.9962374,12.1755333 L17.9962374,12.176137 C18.0102913,12.9024321 17.7782905,13.6105844 17.3406267,14.1795868 C16.9029629,14.7486526 16.2866189,15.1417257 15.5982209,15.2923134 C15.3515663,15.3449254 15.1002171,15.3709295 14.8482829,15.3697204 L11.548556,15.3697204 C11.4430967,15.3727455 11.3417381,15.4120528 11.2602948,15.4809931 C10.0164478,16.6160903 8.77560045,17.7518076 7.53760289,18.8869049 C7.51533874,18.9213758 7.48252895,18.9461693 7.41808228,18.9999919 L7.41801779,19 Z M14.0002686,9 C13.4476738,9 13,9.44767382 13,10.0002686 C13,10.5523262 13.4476738,11 14.0002686,11 C14.2655394,11 14.5195014,10.8945391 14.7072902,10.7072902 C14.8945418,10.5195014 15,10.2650022 15,10.0002686 C15,9.73499776 14.8945391,9.48049864 14.7072902,9.2927098 C14.5195014,9.10545818 14.2655394,9 14.0002686,9 Z M7.00138814,9.00000089 C6.59624445,8.99946232 6.23036998,9.24373314 6.07595148,9.61822267 C5.9209958,9.99271221 6.00762084,10.423152 6.29492796,10.7088539 C6.58223646,10.9945557 7.01320609,11.0790321 7.38715203,10.9219251 C7.76054702,10.7653551 8.00267733,10.3984 7.99997765,9.9932494 C7.99621189,9.44389799 7.55017919,9.00055185 7.00137437,9.00001466 L7.00138814,9.00000089 Z M10.502531,9.00000355 C10.0974151,8.99892778 9.73156577,9.24266353 9.57608358,9.61715634 C9.42113853,9.99164914 9.50721911,10.4226299 9.79450789,10.7083343 C10.0812595,10.9945758 10.5127367,11.0790529 10.886657,10.9219445 C11.2605635,10.7653732 11.5026771,10.3984149 11.4999777,9.99326072 C11.494598,9.4449789 11.0502101,9.00324048 10.5025172,9.00001732 L10.502531,9.00000355 Z" id="Page-1-Copy-3"></path>
        </g>
    </g>
</svg>