<?xml version="1.0" encoding="UTF-8"?>
<svg width="36px" height="28px" viewBox="0 0 36 28" version="1.1" xmlns="http://www.w3.org/2000/svg" xmlns:xlink="http://www.w3.org/1999/xlink">
    <!-- Generator: Sketch 45 (43475) - http://www.bohemiancoding.com/sketch -->
    <title>Artboard Copy 5</title>
    <desc>Created with Sketch.</desc>
    <defs></defs>
    <g id="Symbols" stroke="none" stroke-width="1" fill="none" fill-rule="evenodd">
        <g id="Artboard-Copy-5" fill-rule="nonzero">
            <g id="Group-5" transform="translate(4.000000, 6.000000)">
                <path d="M13.1703771,0.00129535232 L13.1703771,1.57874303 C13.169091,1.6647609 13.2038176,1.74825283 13.2655554,1.81023544 C13.3272932,1.87221805 13.4121818,1.90637649 13.4996454,1.90637649 C13.5883931,1.90637649 13.6719976,1.87222129 13.7350195,1.81023544 C13.7967573,1.7482496 13.8301978,1.6647609 13.8289137,1.57874303 L13.8289137,0.00129535232 C17.2605478,0.0822548726 20.3744381,1.42061289 22.7102673,3.56869565 L21.4909539,4.76916342 L21.4909539,4.76789851 C21.4279287,4.82861815 21.3919166,4.91210684 21.3919166,4.99812795 C21.3906305,5.08541203 21.4266445,5.16890073 21.4883823,5.22962037 C21.5501201,5.29034001 21.6350088,5.32449521 21.7237565,5.32449521 C21.8112167,5.3232303 21.8961087,5.2890738 21.956559,5.22582498 L23.181042,4.02153593 C25.4730456,6.34280729 26.9096761,9.48500819 26.9946273,12.9601146 L15.7698712,12.9601146 C15.702987,12.4971233 15.4907637,12.051846 15.1319139,11.6951383 C14.6174322,11.1815635 13.9100322,10.9627137 13.2347688,11.0398844 L6.73172001,6.10523968 C6.60052635,6.00656945 6.41531294,6.0179556 6.29827123,6.13180476 C6.18122623,6.24691948 6.16836501,6.4290784 6.26868878,6.55810521 L11.2116644,12.9613556 L0.00370097561,12.9613556 C0.0873054878,9.48657298 1.52399854,6.34404824 3.81596927,4.02407223 L5.07130463,5.25996788 L5.07130463,5.25870264 C5.13304244,5.32068849 5.2179311,5.35610666 5.30539463,5.35737287 C5.39414232,5.35737287 5.47903098,5.32321767 5.54076878,5.26249803 C5.60250659,5.20051218 5.63723451,5.11828969 5.63723451,5.03100561 C5.63723451,4.94498774 5.60121915,4.86149581 5.5381972,4.80077617 L4.28671427,3.56993239 C6.62376183,1.42197917 9.73775085,0.0821962579 13.1703728,0.00253208995 L13.1703771,0.00129535232 Z" id="Shape" fill="#026E91" transform="translate(13.499164, 6.481325) scale(-1, 1) translate(-13.499164, -6.481325) "></path>
                <path d="M11.861918,8.105991 L16.5128327,11.6364738 L16.5115465,11.6364738 C16.5861456,11.693398 16.6813239,11.7149041 16.7726464,11.6984596 C17.2845598,11.604851 17.8337793,11.7528547 18.2312062,12.1487888 L18.2324923,12.1500538 C18.8704496,12.7838049 18.865313,13.7996202 18.2222027,14.4270241 C17.5752563,15.0557233 16.5436917,15.0494085 15.9044502,14.4156392 C15.5044551,14.0158935 15.3591161,13.4668908 15.4658649,12.9571049 L15.4645787,12.9571049 C15.4838719,12.8660254 15.4620065,12.7698876 15.4041284,12.6965156 L11.860543,8.10578699 L11.861918,8.105991 Z" id="Shape" fill="#919799" transform="translate(15.284154, 11.500284) scale(-1, 1) translate(-15.284154, -11.500284) "></path>
            </g>
        </g>
    </g>
</svg>