<?xml version="1.0" encoding="UTF-8"?>
<svg width="36px" height="28px" viewBox="0 0 36 28" version="1.1" xmlns="http://www.w3.org/2000/svg" xmlns:xlink="http://www.w3.org/1999/xlink">
    <!-- Generator: Sketch 45 (43475) - http://www.bohemiancoding.com/sketch -->
    <title>Artboard Copy 16</title>
    <desc>Created with Sketch.</desc>
    <defs></defs>
    <g id="Symbols" stroke="none" stroke-width="1" fill="none" fill-rule="evenodd">
        <g id="Artboard-Copy-16" fill="#5C6670">
            <path d="M23.6375641,3.01404761 L23.6378524,3.01377034 C23.6609578,3.01232635 23.6840632,3.01232635 23.7071686,3.01377034 L28.1434058,3.01377034 C28.552083,3.01377034 28.8827786,3.34445485 28.8827786,3.7531432 L28.8827786,8.18938032 C28.8856659,8.38722171 28.8091297,8.57784312 28.6704973,8.71936278 C28.5304231,8.85944066 28.3412472,8.9388641 28.1433984,8.9388641 C27.9455496,8.9388641 27.7563774,8.85944066 27.6162995,8.71936278 C27.4776671,8.57784682 27.4011301,8.38722171 27.4040181,8.18938032 L27.4040181,5.53225913 L21.2694416,11.6668357 C21.1308092,11.8098008 20.9416258,11.8906697 20.7423427,11.8906697 C20.5444976,11.8921152 20.3538799,11.8126881 20.213802,11.6711684 C20.0737278,11.5296525 19.9971909,11.3390273 20.0000789,11.1397442 C20.0029661,10.9418917 20.0852805,10.7527158 20.2296874,10.6155288 L26.352434,4.49278222 L23.706884,4.49278222 C23.5104918,4.50144767 23.3184249,4.43357694 23.174018,4.30071904 C23.0281656,4.16929551 22.9415222,3.98446708 22.9328567,3.78807487 C22.9241913,3.59168265 22.992062,3.39961576 23.1249199,3.25520885 C23.2563434,3.10935647 23.4411682,3.02271232 23.6375641,3.01404761 Z M21.5196533,3.70372739 C21.5196533,4.50194516 21.0030014,4.51268735 20.5957031,4.51268735 L8.5,4.51268735 L8.5,23.5126873 L27.5,23.5126873 L27.5,11.6352459 C27.5,11.2141171 27.7070312,10.8438641 28.2282715,10.8438641 C28.575765,10.8438641 28.8330078,11.107658 29,11.6352459 L29,25.0126873 L7,25.0126873 L7,4.01268735 L7,3.01268735 L8.03845215,3.01268735 L20.5957031,3.01268735 C21.2116699,2.94123552 21.5196533,3.1715822 21.5196533,3.70372739 Z" id="Combined-Shape"></path>
        </g>
    </g>
</svg>