<?xml version="1.0" encoding="UTF-8"?>
<svg width="26px" height="20px" viewBox="0 0 26 20" version="1.1" xmlns="http://www.w3.org/2000/svg" xmlns:xlink="http://www.w3.org/1999/xlink">
    <!-- Generator: Sketch 44.1 (41455) - http://www.bohemiancoding.com/sketch -->
    <title>Combined Shape</title>
    <desc>Created with Sketch.</desc>
    <defs></defs>
    <g id="Symbols" stroke="none" stroke-width="1" fill="none" fill-rule="evenodd">
        <path d="M13.5673257,0 L13.567364,0 C14.9247096,0 15.9617745,1.03951461 15.9632724,2.40006144 L15.9632724,4.00061442 L11.9720712,4.00061442 C9.73626295,4.00061442 7.98086999,5.7616835 7.98086999,8.00122883 L7.98086999,11.2007987 L5.58645575,11.2007987 L2.39441424,14.4003686 L2.39441424,11.2007987 C1.03706869,11.2007987 0,10.0802581 0,8.8007373 L0,2.40006144 C0,1.03951461 1.03706869,0 2.39441424,0 L13.5673257,0 Z M23.1449827,5.59963135 C24.5023282,5.59963135 25.5393969,6.6406436 25.5393969,7.99969279 L25.5393969,14.4003686 C25.5393969,15.6798894 24.5023282,16.8004301 23.1449827,16.8004301 L23.1449827,20 L19.9529412,16.8004301 L11.9720712,16.8004301 C10.6147256,16.8004301 9.57765695,15.6798894 9.57765695,14.4003686 L9.57765695,7.99969279 C9.57765695,6.63914596 10.6147256,5.59963135 11.9720712,5.59963135 L23.1449827,5.59963135 Z" id="Combined-Shape" fill="#026E91"></path>
    </g>
</svg>