<?xml version="1.0" encoding="UTF-8"?>
<svg width="36px" height="28px" viewBox="0 0 36 28" version="1.1" xmlns="http://www.w3.org/2000/svg" xmlns:xlink="http://www.w3.org/1999/xlink">
    <!-- Generator: Sketch 45 (43475) - http://www.bohemiancoding.com/sketch -->
    <title>Artboard Copy 15</title>
    <desc>Created with Sketch.</desc>
    <defs></defs>
    <g id="Symbols" stroke="none" stroke-width="1" fill="none" fill-rule="evenodd">
        <g id="Artboard-Copy-15" fill="#5C6670">
            <path d="M22.8313212,16.3095832 L22.83132,16.3101165 C22.8113045,16.3336148 22.789904,16.3557757 22.7671186,16.3765991 L18.6582263,20.6314817 C18.2797048,21.0234521 17.6562448,21.0343451 17.2642638,20.6558134 L13.0093812,16.546921 C12.8169534,16.3664473 12.7050133,16.1164843 12.6976819,15.8524421 C12.6930687,15.5883525 12.792109,15.3333473 12.9753588,15.1435866 C13.1586085,14.9538259 13.4099985,14.84595 13.6740917,14.8413402 C13.9382253,14.8394488 14.191947,14.9425998 14.3790257,15.1286127 L16.9275231,17.589668 L16.7256429,6.02396124 C16.7169251,5.75858025 16.8145859,5.5022291 16.9991641,5.31109269 C17.1810241,5.11999675 17.4337565,5.01073783 17.6992325,5.00746345 C17.9647015,5.0041892 18.2184232,5.10734024 18.4068847,5.29468846 C18.5939747,5.48071085 18.6991766,5.73487706 18.697004,6.00044465 L18.8984948,17.543848 L21.3488328,15.0064488 C21.5224222,14.8100591 21.7654129,14.6887066 22.0265908,14.6732575 C22.2877318,14.6550935 22.5452545,14.7431823 22.7416442,14.9167718 C22.9380339,15.0903612 23.0593864,15.3333519 23.0748354,15.5945298 C23.0929994,15.8556708 23.0049148,16.1131906 22.8313212,16.3095832 Z M10.1259766,24.146433 C9.57369181,24.146433 9.12597656,23.6987177 9.12597656,23.146433 C9.12597656,22.5941482 9.57369181,22.146433 10.1259766,22.146433 L26.1259766,22.146433 C26.6782613,22.146433 27.1259766,22.5941482 27.1259766,23.146433 C27.1259766,23.6987177 26.6782613,24.146433 26.1259766,24.146433 L10.1259766,24.146433 Z" id="Combined-Shape"></path>
        </g>
    </g>
</svg>