<?xml version="1.0" encoding="UTF-8"?>
<svg width="36px" height="28px" viewBox="0 0 36 28" version="1.1" xmlns="http://www.w3.org/2000/svg" xmlns:xlink="http://www.w3.org/1999/xlink">
    <!-- Generator: Sketch 45 (43475) - http://www.bohemiancoding.com/sketch -->
    <title>Artboard Copy 18</title>
    <desc>Created with Sketch.</desc>
    <defs></defs>
    <g id="Symbols" stroke="none" stroke-width="1" fill="none" fill-rule="evenodd">
        <g id="Artboard-Copy-18" fill-rule="nonzero" fill="#5C6670">
            <path d="M7.62310846,3.0012669 C7.26864014,3.03489117 6.99873273,3.33347423 7.00007333,3.68989367 L7.00007333,7.82165431 C6.997388,8.00591706 7.06855391,8.18345881 7.19745773,8.31526198 C7.32770559,8.44572576 7.50360259,8.51969805 7.68756724,8.51969805 C7.8715319,8.51969805 8.04743233,8.44572576 8.17767675,8.31526198 C8.30658057,8.18345537 8.37774579,8.00591706 8.37506116,7.82165431 L8.37506116,5.34690184 L14.0791411,11.0604382 C14.2080449,11.193591 14.3839454,11.2689096 14.5692506,11.2689096 C14.7532084,11.2702545 14.9304563,11.1962801 15.0607007,11.0644735 C15.1909486,10.9326669 15.2621138,10.7551286 15.2594257,10.569523 C15.2567401,10.3852603 15.1802032,10.2090614 15.0459301,10.0812867 L9.35284991,4.37876835 L11.8127473,4.37876835 C11.9967051,4.38145813 12.173953,4.31017424 12.305538,4.18105672 C12.4357859,4.05059293 12.5096357,3.87440433 12.5096357,3.69013469 C12.5096357,3.50586505 12.4357859,3.32967301 12.305538,3.19921267 C12.1739495,3.07009515 11.9967051,2.99881195 11.8127473,3.00150103 L7.68782505,3.00150103 C7.66634108,3.00015615 7.64485711,3.00015615 7.62337314,3.00150103 L7.62310846,3.0012669 Z M24.1227974,3.0012669 C23.9401837,3.00933692 23.7683291,3.09003434 23.6461283,3.2258763 C23.5225937,3.36037199 23.4594858,3.53925657 23.4675432,3.72216961 C23.4756005,3.90508265 23.5561637,4.07722557 23.6917808,4.19962898 C23.8260539,4.32336833 24.0046424,4.38658082 24.1872527,4.37851012 L26.6471501,4.37851012 L20.95407,10.0810284 C20.8197969,10.2087997 20.7432589,10.3849917 20.7405743,10.5692648 C20.737889,10.7548704 20.8090549,10.9324121 20.9392993,11.0642153 C21.0695472,11.1960219 21.2467882,11.2699976 21.4307494,11.2686514 C21.6160478,11.2686514 21.7919551,11.1933328 21.9208589,11.0601799 L27.6249389,5.34664361 L27.6249389,7.82139607 C27.6222536,8.00565883 27.6934195,8.18320058 27.8223233,8.31500374 C27.9525711,8.44546753 28.1284681,8.51943982 28.3124328,8.51943982 C28.4963975,8.51943982 28.6722979,8.44546753 28.8025423,8.31500374 C28.9314461,8.18319714 29.0026113,8.00565883 28.9999267,7.82139607 L28.9999267,3.68963544 C28.9999267,3.30899699 28.6924378,3.00100867 28.3124397,3.00100867 L24.1875174,3.00100867 C24.1660335,2.99966378 24.1445495,2.99966378 24.1230655,3.00100867 L24.1227974,3.0012669 Z M14.4766668,16.7631286 C14.3249349,16.7846482 14.1852891,16.8572777 14.0792305,16.9675647 L8.37515053,22.681101 L8.37515053,20.2171256 C8.37917886,20.019414 8.2986126,19.8284302 8.15225348,19.6939414 C8.00589437,19.5607885 7.809854,19.4962298 7.61247303,19.5177493 C7.25800472,19.5567532 6.9921191,19.8607165 7.00019708,20.2171187 L7.00019708,24.3488793 C7.00019708,24.7295178 7.30768597,25.0375061 7.68768412,25.0375061 L11.8126064,25.0375061 C11.9965641,25.0401959 12.173812,24.968912 12.3053971,24.8397945 C12.4356449,24.7093307 12.5094948,24.5331421 12.5094948,24.3488724 C12.5094948,24.1646028 12.4356449,23.9884108 12.3053971,23.8579504 C12.1738086,23.7288329 11.9965641,23.6575497 11.8126064,23.6602388 L9.3419498,23.6602388 L15.0460298,17.9467025 C15.2648981,17.7409201 15.3253214,17.4167697 15.1950735,17.1451065 C15.0648257,16.8747654 14.7734377,16.720086 14.4767183,16.7631252 L14.4766668,16.7631286 Z M21.3621932,16.7631286 C21.0949876,16.7886832 20.8667213,16.968911 20.7794448,17.2230969 C20.6908243,17.4786428 20.7593035,17.7610866 20.9540012,17.9467059 L26.6580812,23.6602422 L24.1874246,23.6602422 C24.0034668,23.6575525 23.8262189,23.7288363 23.6946339,23.8579539 C23.5643861,23.9884177 23.4905362,24.1646063 23.4905362,24.3488759 C23.4905362,24.5331455 23.5643861,24.7093376 23.6946339,24.8397979 C23.8262224,24.9689154 24.0034668,25.0401986 24.1874246,25.0375096 L28.3123469,25.0375096 C28.6923553,25.0375096 28.9998339,24.7295109 28.9998339,24.3488828 L28.9998339,20.2171221 C29.0038622,20.0194105 28.923296,19.8284268 28.7769368,19.693938 C28.6305777,19.5607851 28.4345374,19.4962263 28.2371564,19.5177459 C27.8826881,19.5567497 27.6168025,19.860713 27.6248804,20.2171153 L27.6248804,22.6810907 L21.9208005,16.9675544 C21.775782,16.8182635 21.570354,16.742945 21.3622173,16.7631183 L21.3621932,16.7631286 Z" id="Shape"></path>
        </g>
    </g>
</svg>