<?xml version="1.0" encoding="UTF-8"?>
<svg width="36px" height="28px" viewBox="0 0 36 28" version="1.1" xmlns="http://www.w3.org/2000/svg" xmlns:xlink="http://www.w3.org/1999/xlink">
    <!-- Generator: Sketch 45 (43475) - http://www.bohemiancoding.com/sketch -->
    <title>Artboard Copy 7</title>
    <desc>Created with Sketch.</desc>
    <defs></defs>
    <g id="Symbols" stroke="none" stroke-width="1" fill="none" fill-rule="evenodd">
        <g id="Artboard-Copy-7">
            <g id="Group-23" transform="translate(4.000000, 2.000000)">
                <path d="M4.30102222,18.9996585 C2.87747667,18.9996585 1.7194767,17.8601927 1.71821778,16.4581268 L1.71821778,15.4127683 C1.71821778,14.0107341 2.87744444,12.8712366 4.30102222,12.8712366 L4.82589,12.8712366 C6.25069222,12.8712366 7.40869444,14.011939 7.40869444,15.4127683 L7.40869444,16.4581268 C7.40869444,17.860161 6.24946778,18.9996585 4.82589,18.9996585 L4.30102222,18.9996585 Z M9.12662222,22.5426829 L9.12646111,24.7720878 L-0.000161111111,24.7720878 L-0.000161111111,22.5426829 C-0.000161111111,20.7070829 1.51911667,19.2121463 3.38575,19.2121463 L5.742,19.2121463 C7.60740889,19.2121463 9.12662222,20.705878 9.12662222,22.5426829 Z" id="Combined-Shape" fill="#026E91" fill-rule="nonzero"></path>
                <path d="M24.1740778,18.9996585 C22.7505322,18.9996585 21.5925323,17.8601927 21.5912733,16.4581268 L21.5912733,15.4127683 C21.5912733,14.0107341 22.7505,12.8712366 24.1740778,12.8712366 L24.6989456,12.8712366 C26.1237478,12.8712366 27.28175,14.011939 27.28175,15.4127683 L27.28175,16.4581268 C27.28175,17.860161 26.1225233,18.9996585 24.6989456,18.9996585 L24.1740778,18.9996585 Z M25.6153778,19.2121463 L25.6152167,19.2121463 C27.4806256,19.2121463 28.9998389,20.7071146 28.9998389,22.5426829 L28.9998389,24.7720878 L19.8745056,24.7720878 L19.8745056,22.5426829 C19.8745056,20.7058463 21.3924944,19.2121463 23.2591278,19.2121463 L25.6153778,19.2121463 Z" id="Combined-Shape" fill="#026E91" fill-rule="nonzero"></path>
                <path d="M14.7616444,6.35382927 L14.2380333,6.35382927 C12.8132311,6.35382927 11.6552289,5.21312683 11.6552289,3.81229756 L11.6552289,2.76693902 C11.6552289,1.36490488 12.8144556,0.225407317 14.2380333,0.225407317 L14.7616444,0.225407317 C16.1864467,0.225407317 17.3444489,1.36610976 17.3444489,2.76693902 L17.3444489,3.81229756 C17.3444489,5.21433171 16.1852222,6.35382927 14.7616444,6.35382927 Z M15.6780444,6.56631707 L15.6779156,6.56631707 C17.5445811,6.56631707 19.0625378,8.06004878 19.0625378,9.89685366 L19.0625378,12.1262585 L9.93591556,12.1262585 L9.93591556,9.89685366 C9.93591556,8.06001707 11.4539044,6.56631707 13.3205378,6.56631707 L15.6780444,6.56631707 Z" id="Combined-Shape" fill="#026E91" fill-rule="nonzero"></path>
                <path d="M14.0623957,14.0035381 C13.7268116,14.0408267 13.4484866,14.3591063 13.4551684,14.6959926 L13.4551684,17.7215608 L10.3763502,19.5645835 C10.0354411,19.7283801 9.89294111,20.2077767 10.0887082,20.5326972 C10.284465,20.8562949 10.7758445,20.9521858 11.0794582,20.7257915 L14.1370036,18.8934051 L17.1945491,20.7257915 C17.4981695,20.9521756 17.9895491,20.8562949 18.1852991,20.5326972 C18.3810559,20.2090995 18.2385661,19.7296858 17.897657,19.5645835 L14.8188388,17.7215608 L14.8188388,14.6959926 C14.8268297,14.3098108 14.4473161,13.9609245 14.0624297,14.0035381 L14.0623957,14.0035381 Z" id="Path-Copy" fill="#919799"></path>
            </g>
        </g>
    </g>
</svg>