<?xml version="1.0" encoding="UTF-8"?>
<svg width="36px" height="28px" viewBox="0 0 36 28" version="1.1" xmlns="http://www.w3.org/2000/svg" xmlns:xlink="http://www.w3.org/1999/xlink">
    <!-- Generator: Sketch 45 (43475) - http://www.bohemiancoding.com/sketch -->
    <title>Artboard Copy 2</title>
    <desc>Created with Sketch.</desc>
    <defs></defs>
    <g id="Symbols" stroke="none" stroke-width="1" fill="none" fill-rule="evenodd">
        <g id="Artboard-Copy-2">
            <g id="Group-38" transform="translate(2.433315, 1.892578)">
                <path d="M0.578887665,22.183787 L0.26755396,16.1338924 C0.252960192,15.704296 0.409842803,15.2870206 0.702923013,14.9755924 C0.996015677,14.6641705 1.39978125,14.484454 1.82422249,14.4770803 L4.5167609,14.3539901 L4.51797728,14.3539901 C5.03849611,14.3281409 5.53224023,14.5866332 5.81318777,15.0309833 C7.05852259,14.6334026 9.38387403,13.8813174 13.2851967,15.3460984 C14.509859,15.7732369 15.7819373,16.0403285 17.0735052,16.1437177 L20.1552108,16.3738998 C20.8058359,16.4157503 21.3081106,16.9659696 21.298397,17.6257575 C21.2886678,18.284285 20.7693788,18.8197601 20.1187225,18.8406837 L14.9101096,18.9354641 C14.7349844,18.9588513 14.6072877,19.1151773 14.6158027,19.2936554 C14.6243158,19.4721397 14.7678207,19.6136863 14.9441664,19.6198625 L20.0313591,19.5952442 L20.0313591,19.5940133 C20.685658,19.579242 21.3241101,19.3896801 21.8835456,19.0462488 C21.8835456,19.0462488 26.3673736,16.3234653 28.6429117,14.9116237 C29.218163,14.5558903 29.9612231,14.6543606 30.4270095,15.14796 L30.4586285,15.1799631 L30.4574124,15.1799631 C30.7419901,15.4790767 30.8818537,15.890201 30.842937,16.3025606 C30.8028029,16.7161492 30.5875468,17.0915773 30.2531153,17.3316004 L22.9853413,22.5124076 C21.7521796,23.381432 20.2842723,23.8479598 18.7798456,23.8479598 L18.3408028,23.8479598 L6.90894044,23.063859 L6.84934806,23.063859 C6.59760674,23.0626281 6.35438973,22.9703076 6.16466297,22.8016738 C5.92873118,23.248507 5.47997789,23.53898 4.98134582,23.5673089 L2.28880741,23.6904023 C1.40589615,23.7519474 0.640918104,23.0774089 0.57890043,22.183774 L0.578887665,22.183787 Z M2.39337163,21.3713888 L2.39459082,21.3677051 C2.41647758,20.8679641 2.83363361,20.478986 3.32859193,20.4986807 C3.70315751,20.5060544 4.0363842,20.7423907 4.16894387,21.0968952 C4.30272085,21.4526601 4.20907478,21.8539245 3.93422628,22.1111876 C3.65816668,22.3684476 3.2556122,22.4299958 2.91753493,22.267513 C2.57822478,22.1050082 2.37148114,21.7505037 2.3945877,21.3713888 L2.39337163,21.3713888 Z M27.6369311,14.4955776 L27.6366696,14.4955587 C25.7565254,15.6526298 23.6052717,16.988182 22.1422524,17.8707564 C22.2042825,17.3980837 22.1033357,16.9192664 21.8588889,16.5118226 L26.0802626,14.3060169 C26.5861799,14.0253628 27.2112757,14.1016837 27.6369311,14.4955776 Z M21.2667322,15.8815798 L21.266886,15.8815738 C20.9543069,15.6612359 20.5870577,15.5319889 20.2051758,15.5098325 L20.2063919,15.5110634 L19.679802,15.4729061 L23.6614488,13.8973306 C24.0883184,13.7003869 24.584491,13.7459273 24.9688013,14.0167309 L24.9688013,14.0154997 L21.2667322,15.8815798 Z" id="Shape" fill="#919799" fill-rule="nonzero"></path>
                <path d="M18.4782781,13.5156012 C18.4782781,14.0485868 18.1608734,14.5286332 17.6744145,14.7317563 C17.1879555,14.9360896 16.62852,14.8240756 16.2563828,14.4474154 C15.8842456,14.0695294 15.7723523,13.5032991 15.9742367,13.0109318 C16.1761179,12.5185644 16.6504223,12.1985336 17.1770122,12.1985336 C17.8957572,12.1985336 18.4782936,12.7881454 18.4782936,13.5156201 L18.4782781,13.5156012 Z M18.5901652,8.78887487 L18.5924958,8.78250325 C18.5584422,8.79481479 18.4708799,8.82312473 18.4647992,8.89205616 L18.4647992,9.64291239 C18.4319846,10.3408293 17.8628043,10.8885938 17.1720483,10.8885938 C16.4812922,10.8885938 15.9121368,10.3408293 15.8780831,9.64291239 L15.8780831,8.89574301 C15.8877967,7.71529038 16.6393874,6.67270061 17.7460853,6.30218829 C18.5098181,6.04861518 19.0169592,5.31622469 18.9914202,4.50259754 C18.9379019,3.515405 18.1413235,2.73621992 17.1635488,2.71652523 C16.4703643,2.72021208 15.8391726,3.12519799 15.5424342,3.759115 C15.4001547,4.08532214 15.135023,4.33888895 14.8054451,4.4619792 C14.474653,4.58630471 14.1098011,4.56907107 13.7936106,4.41397457 C13.4762058,4.25887493 13.2354079,3.98069133 13.1259554,3.64342365 C13.0152856,3.30492703 13.0456905,2.93687261 13.2098692,2.62175752 C13.9349654,1.08680042 15.4647347,0.106991656 17.1454386,0.100836828 L17.17341,0.100836828 C19.5448389,0.115647237 21.4858208,2.01377447 21.5818953,4.41161121 C21.6560861,6.38120655 20.4374949,8.16478945 18.5901652,8.78887487 Z" id="Combined-Shape" fill="#026E91"></path>
            </g>
        </g>
    </g>
</svg>