<?xml version="1.0" encoding="UTF-8"?>
<svg width="36px" height="28px" viewBox="0 0 36 28" version="1.1" xmlns="http://www.w3.org/2000/svg" xmlns:xlink="http://www.w3.org/1999/xlink">
    <!-- Generator: Sketch 45 (43475) - http://www.bohemiancoding.com/sketch -->
    <title>Artboard Copy 20</title>
    <desc>Created with Sketch.</desc>
    <defs></defs>
    <g id="Symbols" stroke="none" stroke-width="1" fill="none" fill-rule="evenodd">
        <g id="Artboard-Copy-20" fill="#5C6670">
            <path d="M10.6666667,16.3333333 C9.19390733,16.3333333 8,15.139426 8,13.6666667 C8,12.1939073 9.19390733,11 10.6666667,11 C12.139426,11 13.3333333,12.1939073 13.3333333,13.6666667 C13.3333333,15.139426 12.139426,16.3333333 10.6666667,16.3333333 Z M18,16.3333333 C16.5272407,16.3333333 15.3333333,15.139426 15.3333333,13.6666667 C15.3333333,12.1939073 16.5272407,11 18,11 C19.4727593,11 20.6666667,12.1939073 20.6666667,13.6666667 C20.6666667,15.139426 19.4727593,16.3333333 18,16.3333333 Z M25.3333333,16.3333333 C23.860574,16.3333333 22.6666667,15.139426 22.6666667,13.6666667 C22.6666667,12.1939073 23.860574,11 25.3333333,11 C26.8060927,11 28,12.1939073 28,13.6666667 C28,15.139426 26.8060927,16.3333333 25.3333333,16.3333333 Z" id="Combined-Shape"></path>
        </g>
    </g>
</svg>