<?xml version="1.0" encoding="UTF-8"?>
<svg width="15px" height="15px" viewBox="0 0 15 15" version="1.1" xmlns="http://www.w3.org/2000/svg" xmlns:xlink="http://www.w3.org/1999/xlink">
    <!-- Generator: Sketch 44.1 (41455) - http://www.bohemiancoding.com/sketch -->
    <title>Page 1</title>
    <desc>Created with Sketch.</desc>
    <defs></defs>
    <g id="Symbols" stroke="none" stroke-width="1" fill="none" fill-rule="evenodd">
        <path d="M12.7963399,2.19675001 C11.3908489,0.789915005 9.48402854,0 7.49595206,0 C5.50772567,0 3.601505,0.789840005 2.19556419,2.19675001 C0.790073431,3.60300002 0,5.51085004 0,7.50000005 C0,9.48930006 0.789998321,11.3965501 2.19556419,12.8032501 C3.60163993,14.2094999 5.50787559,15 7.49595206,15 C9.48417845,15 11.3908489,14.2095751 12.7963399,12.8032501 C14.2071081,11.3987551 15,9.49035006 15,7.50000005 C15,5.50905004 14.2070632,3.60060002 12.7963399,2.19675001 Z M8.49546235,11.4844501 L6.49494259,11.4844501 L6.49494259,6.53445004 L8.49546235,6.53445004 L8.49546235,11.4844501 Z M7.49521746,5.70060004 C7.05190684,5.70060004 6.65192283,5.43342004 6.48267922,5.02326003 C6.31285092,4.61368503 6.40713351,4.14142503 6.72102052,3.82794003 C7.03432134,3.51447002 7.50634145,3.42130502 7.91569541,3.59122502 C8.32504937,3.76173002 8.59150049,4.16193003 8.5909158,4.60548003 C8.5909158,4.89610503 8.4755486,5.17501503 8.26999909,5.38068004 C8.06444509,5.58576004 7.78568561,5.70118504 7.49521746,5.70060004 Z" id="Page-1" fill="#026E91"></path>
    </g>
</svg>