<?xml version="1.0" encoding="UTF-8"?>
<svg width="21px" height="21px" viewBox="0 0 21 21" version="1.1" xmlns="http://www.w3.org/2000/svg" xmlns:xlink="http://www.w3.org/1999/xlink">
    <!-- Generator: Sketch 45 (43475) - http://www.bohemiancoding.com/sketch -->
    <title>Artboard 2</title>
    <desc>Created with Sketch.</desc>
    <defs></defs>
    <g id="Symbols" stroke="none" stroke-width="1" fill="none" fill-rule="evenodd">
        <g id="Artboard-2" fill="#026E91">
            <g id="Group-2" transform="translate(4.000000, 1.000000)">
                <path d="M9.11347569,14.6184646 C9.47109059,14.6184646 9.76064546,14.9080283 9.76064546,15.2656344 C9.76064546,15.6220975 9.47108173,15.9116524 9.11347569,15.9116524 L3.96954808,15.9116524 C3.61193319,15.9116524 3.32237832,15.6220887 3.32237832,15.2656344 C3.32237832,14.9080195 3.61194205,14.6184646 3.96954808,14.6184646 L9.11347569,14.6184646 Z M5.34808406,18.1796697 L5.3481136,18.1796401 C4.56943671,18.0654389 3.99146692,17.3986603 3.98685398,16.6118916 L9.36497235,16.6118916 C9.36033578,17.4551851 8.70049668,18.1484984 7.85835499,18.1946425 L7.85835499,18.5372757 C7.85720324,18.9410406 7.53072419,19.2686697 7.12695925,19.2698232 L6.08063157,19.2698232 C5.67571486,19.2686714 5.34808406,18.9398889 5.34808406,18.5349722 L5.34808406,18.1796697 Z M6.49710153,2.65790266e-05 L6.49699817,0 C10.0871454,0 13,2.98689194 13,6.67251696 C13,7.52965808 12.8396399,8.37871327 12.5235562,9.17584485 L12.5247079,9.17584485 C12.4843314,9.27620726 12.443955,9.37426319 12.4001173,9.47116737 C12.1186454,10.0987277 11.7414299,10.6778286 11.2834438,11.190036 L9.63264997,13.7267944 L3.36620147,13.7267944 L1.71540766,11.190036 C1.25745104,10.6778256 0.880211958,10.0987277 0.59873416,9.47116737 L0.599888871,9.47116737 C0.556051197,9.37311144 0.514519991,9.27390079 0.475298208,9.17584485 C0.160357416,8.37868374 -0.00114856275,7.5296315 6.14829137e-06,6.67251696 L6.14829137e-06,6.67136225 C6.14829137e-06,2.98898578 2.90597972,2.65790266e-05 6.49710153,2.65790266e-05 Z" id="Combined-Shape"></path>
            </g>
        </g>
    </g>
</svg>