<?xml version="1.0" encoding="UTF-8"?>
<svg width="36px" height="28px" viewBox="0 0 36 28" version="1.1" xmlns="http://www.w3.org/2000/svg" xmlns:xlink="http://www.w3.org/1999/xlink">
    <!-- Generator: Sketch 45 (43475) - http://www.bohemiancoding.com/sketch -->
    <title>Artboard Copy 12</title>
    <desc>Created with Sketch.</desc>
    <defs></defs>
    <g id="Symbols" stroke="none" stroke-width="1" fill="none" fill-rule="evenodd">
        <g id="Artboard-Copy-12">
            <g id="Group-36" transform="translate(9.000000, 1.000000)">
                <path d="M11.6579956,18.7 L5.07786222,18.7 C4.62041111,18.7 4.25,19.0703998 4.25,19.5278622 C4.25,19.98384 4.62039978,20.3542511 5.07786222,20.3542511 L11.6579956,20.3542511 C12.1154467,20.3542511 12.4858578,19.9838513 12.4858578,19.5278622 C12.4858578,19.0704111 12.115458,18.7 11.6579956,18.7 Z" id="Fill-10" fill="#919799"></path>
                <path d="M6.84129111,23.2555081 L6.84129111,23.7100126 C6.84129111,24.2279837 7.26039778,24.6485637 7.77836889,24.650037 L9.11683556,24.650037 C9.63333333,24.6485614 10.0509667,24.229457 10.05244,23.7129592 L10.05244,23.2746615 C11.1297111,23.2156337 11.97378,22.3287444 11.9797111,21.25 L5.1,21.25 C5.10590089,22.2564378 5.84524222,23.1093837 6.84132889,23.2554704 L6.84129111,23.2555081 Z" id="Fill-11" fill="#919799"></path>
                <path d="M8.31111898,3.4e-05 C3.7173412,3.4e-05 7.86491958e-06,3.82352289 7.86491958e-06,8.534034 L7.86491958e-06,8.53551111 C-0.00146924619,9.63193556 0.205129865,10.7180467 0.60800342,11.7377784 C0.658176087,11.863212 0.711302976,11.9901227 0.767380309,12.1155562 L0.765903198,12.1155562 C1.12597075,12.918334 1.60853653,13.6591184 2.19435653,14.31434 L4.30605875,17.5593718 L12.3221254,17.5593718 L14.4338276,14.31434 C15.0196854,13.6591222 15.502221,12.918334 15.862281,12.1155562 C15.9183583,11.991596 15.9700081,11.8661624 16.0216579,11.7377784 L16.0201845,11.7377784 C16.4245201,10.7180844 16.6296534,9.63196956 16.6296534,8.53551111 C16.6296534,3.82084444 12.9035179,0 8.31098675,0 L8.31111898,3.4e-05 Z M7.9333412,3.14325844 C7.05825675,3.19638156 6.20825675,3.45463044 5.45417453,3.898814 C3.87075675,4.83883844 3.04731453,6.54325844 3.00598564,8.91192511 L3.00598564,8.91340222 C2.99860764,9.36348667 2.62968498,9.72502 2.17959675,9.72502 C1.95971875,9.72059244 1.75017675,9.63057556 1.59815898,9.47120244 C1.44616386,9.31330267 1.36204786,9.10227978 1.36647542,8.882398 C1.43140786,5.10462022 3.21403542,3.28788689 4.69858875,2.43373133 C5.69172875,1.86706467 6.80587098,1.54682244 7.94808209,1.50107356 C8.40405986,1.50107356 8.77447098,1.87147333 8.77447098,2.32746244 C8.77447098,2.78491356 8.4040712,3.15532467 7.94808209,3.15532467 L7.9333412,3.14325844 Z" id="Fill-12" fill="#026E91"></path>
            </g>
        </g>
    </g>
</svg>