<?xml version="1.0" encoding="UTF-8"?>
<svg width="36px" height="28px" viewBox="0 0 36 28" version="1.1" xmlns="http://www.w3.org/2000/svg" xmlns:xlink="http://www.w3.org/1999/xlink">
    <!-- Generator: Sketch 45 (43475) - http://www.bohemiancoding.com/sketch -->
    <title>Artboard Copy 10</title>
    <desc>Created with Sketch.</desc>
    <defs></defs>
    <g id="Symbols" stroke="none" stroke-width="1" fill="none" fill-rule="evenodd">
        <g id="Artboard-Copy-10" fill-rule="nonzero">
            <g id="Group-32" transform="translate(9.000000, 0.000000)">
                <path d="M15.8750758,16.3002744 L15.8750758,0.296069565 C15.8750758,0.133146126 15.7457548,5.87439617e-05 15.5860742,5.87439617e-05 L13.9656333,5.87439617e-05 C13.8059498,5.87439617e-05 13.6755091,0.133149063 13.6755091,0.296069565 L13.6755091,16.4092444 L14.8877379,15.2148622 L15.8750758,16.3002744 Z" id="Shape" fill="#919799"></path>
                <path d="M17.4661818,23.8714899 L1.53381818,23.8714899 C0.841124242,23.8714899 0.278839394,24.4462995 0.278839394,25.151932 C0.278839394,25.8586806 0.841095455,26.4335196 1.53381818,26.4335196 L17.4661818,26.4346669 C18.1588758,26.4346669 18.7222833,25.8598572 18.7222833,25.1530793 C18.7211589,24.4474762 18.1577818,23.8714916 17.4661818,23.8714916 L17.4661818,23.8714899 Z" id="Shape" fill="#919799"></path>
                <path d="M17.710303,1.31025469 L16.9861152,1.31025469 L16.9861152,19.1869233 L14.8438939,16.8325828 L12.563347,19.0790694 L12.5644714,1.31019594 L1.28998658,1.31019594 C0.732221424,1.31019594 0.279042636,1.77371517 0.279042636,2.34279729 L0.279042636,23.107319 C0.642259303,22.8732596 1.07407748,22.7378783 1.53402142,22.7378783 L17.4663851,22.7378783 C17.9274517,22.7378783 18.3581472,22.8732655 18.7224866,23.107319 L18.7224866,2.34279729 C18.7213621,1.77371517 18.2681851,1.31019594 17.7104199,1.31019594 L17.710303,1.31025469 Z" id="Shape" fill="#026E91"></path>
            </g>
        </g>
    </g>
</svg>