<?xml version="1.0" encoding="UTF-8"?>
<svg width="21px" height="21px" viewBox="0 0 21 21" version="1.1" xmlns="http://www.w3.org/2000/svg" xmlns:xlink="http://www.w3.org/1999/xlink">
    <!-- Generator: Sketch 45 (43475) - http://www.bohemiancoding.com/sketch -->
    <title>Artboard 2 Copy 3</title>
    <desc>Created with Sketch.</desc>
    <defs></defs>
    <g id="Symbols" stroke="none" stroke-width="1" fill="none" fill-rule="evenodd">
        <g id="Artboard-2-Copy-3" fill-rule="nonzero" fill="#B5D451">
            <path d="M7.49295435,15.9139594 L7.4930334,15.9138717 C7.4936193,15.9596128 7.49479125,16.1466385 7.497135,16.3637531 C6.217335,16.368385 4.936515,16.364911 3.656835,16.364911 C3.46875,16.364911 3.299415,16.3046946 3.17754,16.1622628 C3.1037115,16.0754199 3.058593,15.9642509 3,15.8640859 L3,9.56126968 C3.020508,9.51321336 3.039843,9.46515704 3.062109,9.42057502 C3.200394,9.12586949 3.445899,9.01296632 3.762309,9.01296632 L7.505259,9.01296632 C7.4952981,9.4240434 7.49295435,10.0563023 7.49295435,9.92255625 C7.4818215,10.9206788 7.47947775,11.9194979 7.4800638,12.9182578 C7.4812356,13.9163804 7.4812356,14.9157776 7.49295435,15.9139594 Z M17.9578543,8.91628154 L17.9579038,8.91628377 C17.9707948,8.96260294 17.9860291,9.0077645 17.9989198,9.05408367 L17.9989198,9.46227043 C17.9901306,9.47037665 17.9830993,9.4802187 17.9784118,9.49121954 L17.976654,9.49237759 C17.919234,9.78188352 17.806734,10.0447392 17.604579,10.2670713 C17.5811419,10.2925476 17.5881727,10.3544981 17.5963759,10.3967649 C17.6303599,10.5727778 17.6965704,10.7476345 17.7018439,10.9248035 C17.7129739,11.2994181 17.5700089,11.6317452 17.3356339,11.9235634 C17.2852429,11.9860935 17.2852429,12.0353089 17.3086804,12.10884 C17.3532109,12.2454705 17.3983288,12.3867506 17.4071179,12.5286029 C17.4329029,12.93968 17.2864129,13.3003914 17.0391529,13.6257817 C17.0145436,13.6582052 16.9934497,13.7166829 17.0063404,13.7496859 C17.0959896,13.9853282 17.1071224,14.229093 17.0883724,14.4745772 C17.0385574,15.1207185 16.6459924,15.5989695 16.0213774,15.8016177 C15.7073074,15.9035199 15.3844624,15.9232052 15.0580924,15.9232052 C13.1812924,15.9232052 11.3040424,15.9168364 9.42724245,15.9278371 C9.01474245,15.9301642 8.64911745,15.8328865 8.30810745,15.6198183 C8.31806805,13.875846 8.32334145,12.1320219 8.32334145,10.3880495 L8.32334145,9.00600407 C8.33388795,8.99558115 8.34384885,8.98458075 8.35263795,8.97300111 C8.60517795,8.65339142 8.87471295,8.3430604 9.09033795,8.00029854 C9.50693295,7.3344438 9.89307795,6.65007621 10.2915079,5.97381632 C10.3758829,5.83137561 10.4163118,5.6681098 10.4063509,5.50367304 L10.4069368,5.50367304 C10.3858438,4.99356929 10.3823278,4.48232423 10.3682653,3.97165723 C10.3577203,3.60863352 10.5387703,3.35444874 10.8475603,3.1946513 C11.3303653,2.9451103 11.8278253,2.94104903 12.3317353,3.15064883 C12.5983453,3.26065872 12.7659178,3.45173085 12.8643553,3.71227433 C13.0401403,4.17373184 13.2241303,4.63345516 13.3864303,5.10011524 C13.5663133,5.61893441 13.5528373,6.1492852 13.4461963,6.68311919 C13.3670923,7.07798085 13.3090843,7.47632571 13.2411163,7.87235832 C13.2188503,8.00726287 13.2241228,8.01594775 13.3653343,8.01594775 C14.4645343,8.0153688 15.5637193,8.01073688 16.6629343,8.01884281 C16.8697693,8.01710565 17.0754343,8.04895101 17.2723093,8.1132183 C17.6496493,8.24466099 17.8605883,8.53993273 17.9578543,8.91628154 Z" id="Combined-Shape"></path>
        </g>
    </g>
</svg>