<?xml version="1.0" encoding="UTF-8"?>
<svg width="24px" height="21px" viewBox="0 0 24 21" version="1.1" xmlns="http://www.w3.org/2000/svg" xmlns:xlink="http://www.w3.org/1999/xlink">
    <!-- Generator: Sketch 45 (43475) - http://www.bohemiancoding.com/sketch -->
    <title>Artboard 2 Copy 6</title>
    <desc>Created with Sketch.</desc>
    <defs></defs>
    <g id="Symbols" stroke="none" stroke-width="1" fill="none" fill-rule="evenodd">
        <g id="Artboard-2-Copy-6" fill="#026E91">
            <path d="M1,14.8605975 L1,7 L2.65920592,7 L2.65920592,13.4841865 L5.83310627,13.4841865 L5.83310627,14.8605975 L1,14.8605975 Z M7.37527572,14.8605975 L7.37527572,7 L9.03448164,7 L9.03448164,14.8605975 L7.37527572,14.8605975 Z M15.6506098,7 L17.3258726,7 L14.6657908,14.8605975 L12.8567212,14.8605975 L10.2019917,7 L11.8772544,7 L13.3491307,11.6776469 C13.4311993,11.9536474 13.5159429,12.2753444 13.6033638,12.6427477 C13.6907848,13.0101509 13.7451991,13.2655371 13.7666083,13.408914 C13.8058585,13.0791472 13.9396641,12.5020639 14.1680291,11.6776469 L15.6506098,7 Z M23,14.8605975 L18.4933826,14.8605975 L18.4933826,7 L23,7 L23,8.36565784 L20.1525886,8.36565784 L20.1525886,10.0915483 L22.8019657,10.0915483 L22.8019657,11.4572061 L20.1525886,11.4572061 L20.1525886,13.4841865 L23,13.4841865 L23,14.8605975 Z" id="LIVE-Copy"></path>
        </g>
    </g>
</svg>