<?xml version="1.0" encoding="UTF-8"?>
<svg width="23px" height="9px" viewBox="0 0 23 9" version="1.1" xmlns="http://www.w3.org/2000/svg" xmlns:xlink="http://www.w3.org/1999/xlink">
    <!-- Generator: Sketch 44.1 (41455) - http://www.bohemiancoding.com/sketch -->
    <title>Path Copy 3</title>
    <desc>Created with Sketch.</desc>
    <defs></defs>
    <g id="Symbols" stroke="none" stroke-width="1" fill="none" fill-rule="evenodd">
        <path d="M13.4984371,-3.45260129 C13.3655792,-3.30819438 13.2977085,-3.11612749 13.3063739,-2.91973528 C13.3150394,-2.72334306 13.4016828,-2.53851463 13.5475352,-2.40709111 C13.6919421,-2.2742332 13.884009,-2.20636247 14.0804012,-2.21502792 L16.7259512,-2.21502792 L3.53213677,10.9787865 C3.38772985,11.1159734 3.30541547,11.3051494 3.30252822,11.5030018 C3.29964023,11.702285 3.37617715,11.8929101 3.51625134,12.0344261 C3.65632922,12.1759457 3.84694694,12.2553729 4.04479202,12.2539274 C4.24407519,12.2539274 4.43325852,12.1730585 4.57189093,12.0300934 L17.7775353,-1.17555102 L17.7775353,1.48157018 C17.7746473,1.67941156 17.8511842,1.87003667 17.9898167,2.01155264 C18.1298945,2.15163052 18.3190668,2.23105395 18.5169156,2.23105395 C18.7147643,2.23105395 18.9039403,2.15163052 19.0440145,2.01155264 C19.1826469,1.87003298 19.2591831,1.67941156 19.2562958,1.48157018 L19.2562958,-2.95466695 C19.2562958,-3.36335529 18.9256002,-3.6940398 18.516923,-3.6940398 L14.0806858,-3.6940398 C14.0575804,-3.69548379 14.034475,-3.69548379 14.0113696,-3.6940398 C13.8146854,-3.68509782 13.6298606,-3.59845368 13.4984371,-3.45260129 Z" id="Path-Copy-3" fill="#5C6670" transform="translate(11.279412, 4.279412) rotate(-315.000000) translate(-11.279412, -4.279412) "></path>
    </g>
</svg>