<?xml version="1.0" encoding="UTF-8"?>
<svg width="36px" height="28px" viewBox="0 0 36 28" version="1.1" xmlns="http://www.w3.org/2000/svg" xmlns:xlink="http://www.w3.org/1999/xlink">
    <!-- Generator: Sketch 45 (43475) - http://www.bohemiancoding.com/sketch -->
    <title>Artboard</title>
    <desc>Created with Sketch.</desc>
    <defs></defs>
    <g id="Symbols" stroke="none" stroke-width="1" fill="none" fill-rule="evenodd">
        <g id="Artboard" fill-rule="nonzero">
            <g id="Group-49-Copy" transform="translate(4.000000, 4.000000)">
                <g id="Group-48" transform="translate(0.000000, 3.276596)" fill="#919799">
                    <path d="M5.72580505,9.29757447 C4.06933196,8.93601831 2.8242,7.42736485 2.8242,5.62797447 L2.8242,4.08474468 C2.8242,2.01496596 4.47055932,0.332761702 6.49235593,0.332761702 L7.236,0.332761702 C9.25953559,0.332761702 10.9041559,2.01674468 10.9041559,4.08474468 L10.9041559,5.62797447 C10.9041559,7.42878239 9.65788755,8.93620248 8.0023968,9.29757447 L8.53749153,9.29757447 L8.53730847,9.29757447 C11.1883881,9.29757447 13.3442237,11.5027234 13.3442237,14.2143404 L13.3442237,17.5055404 L0.38239322,17.5055404 L0.38239322,14.2143404 C0.38239322,11.5026766 2.53827458,9.29757447 5.18930847,9.29757447 L5.72580505,9.29757447 Z" id="Combined-Shape"></path>
                </g>
                <g id="Group-47" transform="translate(10.525424, 0.000000)" fill="#026E91">
                    <path d="M7.02864868,11.2340426 C5.00226868,10.7222576 3.49653576,8.86508949 3.49460709,6.65697315 L3.49460709,4.71687372 C3.49460709,2.11481371 5.58743673,0 8.15751717,0 L9.10509617,0 C11.6773872,0 13.7680063,2.11704986 13.7680063,4.71687372 L13.7680063,6.65697315 C13.7680063,8.86504449 12.2609639,10.7222508 10.2341027,11.2340426 L10.3643816,11.2340426 L10.3640908,11.2340426 C13.7318386,11.2340426 16.4745763,14.0085807 16.4745763,17.4152444 L16.4745763,21.5528364 L4.97379915e-14,21.5528364 L4.97379915e-14,17.4152444 C4.97379915e-14,14.0062268 2.74052715,11.2340426 6.11048549,11.2340426 L7.02864868,11.2340426 Z" id="Combined-Shape"></path>
                </g>
            </g>
        </g>
    </g>
</svg>