<?xml version="1.0" encoding="UTF-8"?>
<svg width="37px" height="32px" viewBox="0 0 37 32" version="1.1" xmlns="http://www.w3.org/2000/svg" xmlns:xlink="http://www.w3.org/1999/xlink">
    <!-- Generator: Sketch 44.1 (41455) - http://www.bohemiancoding.com/sketch -->
    <title>Group 30 Copy</title>
    <desc>Created with Sketch.</desc>
    <defs></defs>
    <g id="Symbols" stroke="none" stroke-width="1" fill="none" fill-rule="evenodd">
        <g id="Group-30-Copy" transform="translate(-3.000000, 0.000000)" fill-rule="nonzero" fill="#F9A147">
            <path d="M27.0795581,28.5903761 C26.8339931,28.5903761 26.6110438,28.6468879 26.5387303,28.3994565 L26.43026,28.1367485 C25.9511783,26.8461213 24.2216707,23.4552535 22.1261604,23.4552535 C20.7070031,23.4552535 19.1552903,25.0620467 17.6396379,28.0511185 C17.5386998,28.2710585 17.3097071,28.4314328 17.0596258,28.4008837 C16.7553074,28.364227 16.532335,28.1045766 16.5594477,27.7945141 C16.6844903,26.3740735 16.7116069,23.7914116 15.4762493,22.4213324 C14.9037578,21.7859504 14.1248932,21.4774088 13.0974244,21.4774088 C11.9374001,21.4774088 10.4881218,21.8837014 8.78869669,22.6840091 L8.39249583,22.8764576 C8.110774,23.0123941 7.77329942,22.8932586 7.63773571,22.6076421 C7.50214886,22.323554 7.61965772,21.9798846 7.89987312,21.8424466 C8.03545997,21.7752407 8.1665306,21.7126214 8.29607397,21.651527 C9.43048962,20.7534291 12.1060892,18.1141498 11.6089194,16.0980923 C11.251872,14.6501641 9.24968659,13.5749021 5.8149688,12.9899205 C5.80442299,12.9883933 5.78333174,12.9853387 5.78182492,12.9853387 L5.37656077,12.9196617 C5.06922646,12.8692574 4.85983741,12.5760041 4.90650373,12.2644167 C4.95471273,11.9513082 5.24396673,11.7359352 5.55130876,11.7848107 C5.69894786,11.8077212 5.84658696,11.8321574 5.98819801,11.8565952 C6.13282502,11.8779781 6.8122634,11.9650364 7.69209695,11.9650364 C9.12178309,11.9650364 11.6618189,11.7176049 12.6125005,10.0649899 C13.4621745,8.58804914 12.9891323,6.2175853 11.2039106,3.02065558 C11.0622957,2.76864155 11.1300891,2.44943733 11.3605898,2.27684802 C11.5910906,2.1042587 11.910481,2.13327513 12.1078293,2.34405384 C13.8011609,4.15244894 16.3833892,6.26309039 18.0903736,6.26309039 C18.5393343,6.26309039 18.8978936,6.11341001 19.1901559,5.8048724 C19.7023669,5.26114176 20.282379,3.9155394 20.1362479,0.599822563 C20.1226892,0.28366036 20.3622285,0.0148409629 20.6725634,0.00111671037 C20.9844139,-0.0187388812 21.2495673,0.228692969 21.2661512,0.543322435 L21.2872428,0.948090132 C21.5870411,2.22800375 22.7018877,5.38794446 24.4389159,5.38794446 C25.2147723,5.38794446 26.529991,4.76476174 28.3889686,1.79711697 C28.554688,1.52983031 28.9026837,1.45040559 29.1663291,1.61688742 C29.4299706,1.78489808 29.5113243,2.13618029 29.3486208,2.40499578 L29.2702832,2.53329213 C29.1527727,2.93805982 28.5396275,5.31309841 29.4646271,6.60051932 C29.8924917,7.19465042 30.5990428,7.52915464 31.6280157,7.52915464 C32.854337,7.52915464 34.475355,7.05873731 36.4473731,6.21713956 C36.7230669,6.09800444 37.0409609,6.19728397 37.1750205,6.46915359 C37.3091033,6.74255165 37.2081644,7.06175977 36.9475357,7.21143624 L36.77278,7.30613358 C36.4533973,7.57800281 33.8124388,9.77129867 34.2131906,12.0716945 C34.4783401,13.5807367 36.0180199,14.5139468 38.7961311,15.6869598 L38.9437702,15.6869598 C39.2556207,15.6869598 39.5071984,16.068799 39.5102453,16.3849808 C39.5132581,16.699618 39.2646802,17.0218877 38.9543376,17.0279874 C38.9166744,17.0295147 35.1759475,17.1608663 34.3008192,19.1815611 C33.6816227,20.6111512 34.6397901,22.865565 37.0728367,25.6651952 C37.2686848,25.8881889 37.2611527,26.2348885 37.0577712,26.4502537 C36.852883,26.6656111 36.5199516,26.6900488 36.2924437,26.5052367 L34.2435611,24.8190305 C34.2194566,24.7991749 31.6447874,22.7143323 29.6818326,22.7143323 C29.1123493,22.7143323 28.6754601,22.8976156 28.3455562,23.2672515 C27.8453782,23.8323701 27.3195915,25.1611984 27.6359969,28.2983044 C27.6480491,28.34718 27.6555817,28.1791693 27.6555817,28.2341563 C27.6555817,28.5503185 27.4024844,28.5900328 27.0921534,28.5900328 L27.0801012,28.5900328 L27.0795581,28.5903761 Z M22.1259869,22.3601129 C24.0423139,22.3601129 25.5156967,24.1379705 26.4316292,25.6760252 C26.5280472,24.2448711 26.8820941,23.1955718 27.5012519,22.49759 C28.0511431,21.8790211 28.7833028,21.5643799 29.6781776,21.5643799 C31.1636319,21.5643799 32.816275,22.459428 33.870818,23.1467354 C32.9473264,21.4162284 32.7424188,19.9438624 33.2636931,18.7463725 C33.8768345,17.3381313 35.3532641,16.6370996 36.6458438,16.288832 C34.557777,15.2532961 33.3646235,13.9458558 33.0979699,12.3864131 C32.817756,10.7643707 33.6101809,9.27057772 34.4508301,8.15731015 C33.3827115,8.47041861 32.4380851,8.67050335 31.6290994,8.67050335 C30.2295343,8.67050335 29.1945449,8.16954859 28.5482357,7.26687596 C27.9757442,6.469579 27.8205883,5.43251818 27.8356296,4.51608219 C26.6605255,5.88154757 25.5396855,6.5413674 24.4399032,6.5413674 C22.8942069,6.5413674 21.8260883,5.18200169 21.1436031,3.83334951 C20.9522751,5.08272569 20.5756239,5.99454782 20.0091875,6.59481769 C19.5014888,7.13397358 18.8566838,7.4058389 18.0913563,7.4058389 C16.5848442,7.40736656 14.8538326,6.30461427 13.4814187,5.18352661 C14.3310927,7.4592892 14.370277,9.28594419 13.5929011,10.6376462 C12.803469,12.0107362 11.3330945,12.6537428 9.83259898,12.9286971 C11.4506088,13.6526807 12.4147888,14.6179531 12.7100593,15.8169289 C13.1349156,17.5397722 12.0547254,19.3374929 10.9444142,20.6477875 C13.3458396,19.9971172 15.1432254,20.3484268 16.31374,21.6466863 C17.2538155,22.6914108 17.6259118,24.1821149 17.723834,25.6407957 C19.1429913,23.4643091 20.6178782,22.3600347 22.1258943,22.3600347 L22.1259869,22.3601129 Z" id="Shape"></path>
            <path d="M22.5091644,13.6260206 C22.2863855,13.6260206 22.1060803,13.4432498 22.1060803,13.2174081 C22.1060803,11.4164756 20.6608495,9.95144805 18.8843067,9.95144805 L14.0511631,9.95144805 C12.2745962,9.95144805 10.8293896,11.4165001 10.8293896,13.2174081 C10.8293896,13.44324 10.6490916,13.6260206 10.4263054,13.6260206 C10.2035192,13.6260206 10.0232212,13.4432498 10.0232212,13.2174081 C10.0232212,10.9667324 11.8299953,9.13520301 14.0511631,9.13520301 L18.8843067,9.13520301 C21.1054745,9.13520301 22.9122486,10.9667569 22.9122486,13.2174081 C22.9122486,13.44324 22.7319506,13.6260206 22.5091644,13.6260206 L22.5091644,13.6260206 Z M17.5580921,25.9941417 C17.7157348,26.1539464 17.7157348,26.4113527 17.5580921,26.5711721 C17.479742,26.6515522 17.3768492,26.6907868 17.2730091,26.6907868 C17.1701163,26.6907868 17.0672236,26.6515522 16.9888686,26.5711721 L16.4678074,26.0439199 L15.9467462,26.5711721 C15.8683961,26.6515522 15.7655033,26.6907868 15.6626057,26.6907868 C15.558768,26.6907868 15.4558752,26.6515522 15.3775227,26.5711721 C15.2198801,26.4113674 15.2198801,26.1539611 15.3775227,25.9941417 L15.8985839,25.4659342 L15.3775227,24.938682 C15.2198801,24.7788773 15.2198801,24.5205157 15.3775227,24.3606963 C15.5351654,24.2018469 15.7890891,24.2018469 15.9467462,24.3606963 L16.4678074,24.8889038 L16.9888686,24.3606963 C17.1465113,24.2018469 17.400435,24.2018469 17.5580921,24.3606963 C17.7157348,24.520501 17.7157348,24.7788626 17.5580921,24.938682 L17.0370309,25.4659342 L17.5580921,25.9941417 Z M17.5580921,29.2601018 C17.7157348,29.4199065 17.7157348,29.6782682 17.5580921,29.8380876 C17.479742,29.9175122 17.3768492,29.9577022 17.2730091,29.9577022 C17.1701163,29.9577022 17.0672236,29.9175122 16.9888686,29.8380876 L16.4678074,29.30988 L15.9467462,29.8380876 C15.8683961,29.9175122 15.7655033,29.9577022 15.6626057,29.9577022 C15.558768,29.9577022 15.4558752,29.9175122 15.3775227,29.8380876 C15.2198801,29.6782828 15.2198801,29.4199212 15.3775227,29.2601018 L15.8985839,28.7328496 L15.3775227,28.2046421 C15.2198801,28.0448374 15.2198801,27.7864757 15.3775227,27.6276117 C15.5351654,27.467807 15.7890891,27.467807 15.9467462,27.6276117 L16.4678074,28.1548639 L16.9888686,27.6276117 C17.1465113,27.467807 17.400435,27.467807 17.5580921,27.6276117 C17.7157348,27.786461 17.7157348,28.0448227 17.5580921,28.2046421 L17.0370309,28.7328496 L17.5580921,29.2601018 Z M18.8843792,7.50173304 L14.0512356,7.50173304 C10.9418327,7.50173304 8.41289025,10.0653598 8.41289025,13.2174081 L8.41289025,15.302532 C7.60106711,15.9503592 7.20554681,17.2814363 7.20554681,19.3590151 C7.20554681,21.80971 9.89881609,25.428674 10.8294379,26.4470206 L10.8294379,30.7741972 C10.8294379,31.4497796 11.3712816,31.9990547 12.0377238,31.9990547 L20.8978427,31.9990547 C21.5642849,31.9990547 22.1061286,31.4497796 22.1061286,30.7741972 L22.1061286,25.2537644 C23.6240257,24.1810587 24.5227004,22.4451661 24.5227004,20.5667246 L24.5227004,13.2175796 C24.5227004,10.0655313 21.993758,7.50190452 18.8843551,7.50190452 L18.8843792,7.50173304 Z" id="Shape" transform="translate(15.864124, 19.750394) rotate(55.000000) translate(-15.864124, -19.750394) "></path>
        </g>
    </g>
</svg>