<?xml version="1.0" encoding="UTF-8"?>
<svg width="36px" height="28px" viewBox="0 0 36 28" version="1.1" xmlns="http://www.w3.org/2000/svg" xmlns:xlink="http://www.w3.org/1999/xlink">
    <!-- Generator: Sketch 45.2 (43514) - http://www.bohemiancoding.com/sketch -->
    <title>Artboard 4 Copy 7</title>
    <desc>Created with Sketch.</desc>
    <defs></defs>
    <g id="Symbols" stroke="none" stroke-width="1" fill="none" fill-rule="evenodd">
        <g id="Artboard-4-Copy-7" fill-rule="nonzero" fill="#026E91">
            <path d="M27.6299372,9.39035027 C27.8382599,11.1610934 28.4632281,21.3689064 18.4637377,24.7020699 L18.1512536,24.7020699 C8.25592464,21.3689064 8.88089279,11.1610934 9.0892155,9.39035027 C9.0892155,9.28618892 9.19337686,9.0778662 9.29753822,9.0778662 L18.0470923,4.07812102 C18.255415,3.97395966 18.4637377,3.97395966 18.4637377,4.07812102 L27.3174531,8.97370484 C27.5257759,9.0778662 27.6299372,9.18202756 27.6299372,9.39035027 Z M17.6901622,8.07503672 C17.4927886,8.13756315 17.3389575,8.31427457 17.2838273,8.54534203 C17.2529524,8.67746289 17.2529524,14.5598327 17.2838273,14.6919229 C17.3317931,14.8898356 17.4530853,15.0523943 17.6140723,15.1301452 L17.7072489,15.1747288 L18.8507282,15.1747288 L18.9439048,15.1301452 C19.1048918,15.0523957 19.2261896,14.8892788 19.2741498,14.6919229 C19.3050247,14.559802 19.3050247,8.67743227 19.2741498,8.54534203 C19.2261839,8.34742936 19.1048918,8.18487067 18.9439048,8.10711976 L18.8507282,8.06253617 L18.3004986,8.05981767 C17.8726678,8.05709904 17.7375804,8.06144869 17.6907211,8.07504076 L17.6901622,8.07503672 Z M20.0571203,10.3074732 L20.0571203,10.9615496 L20.1955062,11.0338624 C20.5285176,11.209477 20.8731027,11.4622997 21.1509698,11.7368776 C22.1599121,12.7318554 22.5652167,14.1618262 22.2238779,15.5281043 C22.0446976,16.2436186 21.6802538,16.8797536 21.1509698,17.4017258 C19.8906104,18.6446407 17.9680673,18.9328034 16.3874135,18.1172401 C16.0373098,17.9361832 15.6943761,17.6855319 15.4065867,17.4017258 C14.1462274,16.1588108 13.8540202,14.2628774 14.6810301,12.7041011 C15.0465607,12.0179417 15.6519346,11.4122613 16.341147,11.0463616 L16.4723657,10.9751358 L16.4723657,10.3221451 C16.4723657,9.96330228 16.467955,9.66915442 16.4640958,9.66915442 C16.4431446,9.66915442 16.1184098,9.8083433 15.9557573,9.88609421 C15.224682,10.2411372 14.5570078,10.7908219 14.0657193,11.4422259 C12.9211391,12.9624468 12.7077741,14.9747004 13.5083197,16.6993898 C14.1407083,18.0581099 15.3740812,19.1058263 16.8251663,19.5151808 C18.8083582,20.0735649 20.9099687,19.4580911 22.2619718,17.924252 C23.6083433,16.3959581 23.9232179,14.2189048 23.0636183,12.3675535 C22.5668676,11.2997104 21.6830762,10.4037377 20.616209,9.88609421 C20.4497033,9.80562634 20.1701708,9.68709587 20.0896772,9.66208363 L20.0571481,9.653928 L20.0571481,10.3069187 L20.0571203,10.3074732 Z" id="Combined-Shape"></path>
        </g>
    </g>
</svg>