<?xml version="1.0" encoding="UTF-8"?>
<svg width="36px" height="28px" viewBox="0 0 36 28" version="1.1" xmlns="http://www.w3.org/2000/svg" xmlns:xlink="http://www.w3.org/1999/xlink">
    <!-- Generator: Sketch 45 (43475) - http://www.bohemiancoding.com/sketch -->
    <title>Artboard Copy 14</title>
    <desc>Created with Sketch.</desc>
    <defs></defs>
    <g id="Symbols" stroke="none" stroke-width="1" fill="none" fill-rule="evenodd">
        <g id="Artboard-Copy-14" fill="#5C6670">
            <g id="Group-11" transform="translate(7.000000, 3.000000)">
                <path d="M6.5,1.5 L6.5,9.5 L16.5,9.5 L16.5,1.5 L6.5,1.5 Z M5,0 L18,0 L18,11 L5,11 L5,0 Z" id="Rectangle-11-Copy" fill-rule="nonzero"></path>
                <polygon id="Rectangle-16" points="0 5 23 5 23 16 17 16 17 13 6 13 6 16 0 16"></polygon>
                <path d="M6.5,12.5 L6.5,20.5 L16.5,20.5 L16.5,12.5 L6.5,12.5 Z M5,11 L18,11 L18,22 L5,22 L5,11 Z" id="Rectangle-11" fill-rule="nonzero"></path>
                <polygon id="Line" fill-rule="nonzero" points="7.39414978 16 15.95961 16 15.95961 15 7.39414978 15"></polygon>
                <polygon id="Line-Copy-2" fill-rule="nonzero" points="7.39414978 18 15.95961 18 15.95961 17 7.39414978 17"></polygon>
            </g>
        </g>
    </g>
</svg>