<?xml version="1.0" encoding="UTF-8"?>
<svg width="36px" height="28px" viewBox="0 0 36 28" version="1.1" xmlns="http://www.w3.org/2000/svg" xmlns:xlink="http://www.w3.org/1999/xlink">
    <!-- Generator: Sketch 45.2 (43514) - http://www.bohemiancoding.com/sketch -->
    <title>Artboard 4 Copy 6</title>
    <desc>Created with Sketch.</desc>
    <defs></defs>
    <g id="Symbols" stroke="none" stroke-width="1" fill="none" fill-rule="evenodd">
        <g id="Artboard-4-Copy-6" fill-rule="nonzero" fill="#026E91">
            <path d="M27.6299372,9.39035027 C27.6299372,9.18202756 27.5257759,9.0778662 27.3174531,8.97370484 L18.4637377,4.07812102 C18.4637377,3.97395966 18.255415,3.97395966 18.0470923,4.07812102 L9.29753822,9.0778662 C9.19337686,9.0778662 9.0892155,9.28618892 9.0892155,9.39035027 C8.88089279,11.1610934 8.25592464,21.3689064 18.1512536,24.7020699 L18.4637377,24.7020699 C28.4632281,21.3689064 27.8382599,11.1610934 27.6299372,9.39035027 Z M23.1509988,13.1401592 L18.0470923,18.2440657 C17.6304469,18.6607111 17.0054787,18.6607111 16.5888333,18.2440657 L14.6097675,16.2649999 C14.193122,15.8483545 14.193122,15.2233863 14.6097675,14.8067409 C15.0264129,14.3900955 15.6513811,14.3900955 16.0680265,14.8067409 L17.3179628,15.9525158 L21.6927398,11.5777388 C22.1093852,11.1610934 22.7343534,11.1610934 23.1509988,11.5777388 C23.5676443,11.9943842 23.5676443,12.7235137 23.1509988,13.1401592 Z" id="Shape"></path>
        </g>
    </g>
</svg>