<?xml version="1.0" encoding="UTF-8"?>
<svg width="36px" height="28px" viewBox="0 0 36 28" version="1.1" xmlns="http://www.w3.org/2000/svg" xmlns:xlink="http://www.w3.org/1999/xlink">
    <!-- Generator: Sketch 45 (43475) - http://www.bohemiancoding.com/sketch -->
    <title>Artboard Copy 9</title>
    <desc>Created with Sketch.</desc>
    <defs></defs>
    <g id="Symbols" stroke="none" stroke-width="1" fill="none" fill-rule="evenodd">
        <g id="Artboard-Copy-9">
            <g id="Group-28" transform="translate(8.000000, 2.000000)">
                <path d="M19.6153846,0 C19.8272231,0 20,0.173891613 20,0.387096774 L20,21.2903226 C20,21.5035277 19.8272231,21.6774194 19.6153846,21.6774194 L2.69230769,21.6774194 C2.48046923,21.6774194 2.30769231,21.5035277 2.30769231,21.2903226 L2.30769231,0.387096774 C2.30769231,0.173891613 2.48046923,0 2.69230769,0 L19.6153846,0 Z M16.1538462,15.8709677 C16.3656846,15.8709677 16.5384615,15.6970761 16.5384615,15.483871 C16.5384615,15.2706658 16.3656846,15.0967742 16.1538462,15.0967742 L6.15384615,15.0967742 C5.94200769,15.0967742 5.76923077,15.2706658 5.76923077,15.483871 C5.76923077,15.6970761 5.94200769,15.8709677 6.15384615,15.8709677 L16.1538462,15.8709677 Z M16.1538462,13.5483871 C16.3656846,13.5483871 16.5384615,13.3744955 16.5384615,13.1612903 C16.5384615,12.9480852 16.3656846,12.7741935 16.1538462,12.7741935 L6.15384615,12.7741935 C5.94200769,12.7741935 5.76923077,12.9480852 5.76923077,13.1612903 C5.76923077,13.3744955 5.94200769,13.5483871 6.15384615,13.5483871 L16.1538462,13.5483871 Z M16.1538462,11.2258065 C16.3656846,11.2258065 16.5384615,11.0519148 16.5384615,10.8387097 C16.5384615,10.6255045 16.3656846,10.4516129 16.1538462,10.4516129 L6.15384615,10.4516129 C5.94200769,10.4516129 5.76923077,10.6255045 5.76923077,10.8387097 C5.76923077,11.0519148 5.94200769,11.2258065 6.15384615,11.2258065 L16.1538462,11.2258065 Z M16.1538462,8.90322581 C16.3656846,8.90322581 16.5384615,8.72933419 16.5384615,8.51612903 C16.5384615,8.30292387 16.3656846,8.12903226 16.1538462,8.12903226 L6.15384615,8.12903226 C5.94200769,8.12903226 5.76923077,8.30292387 5.76923077,8.51612903 C5.76923077,8.72933419 5.94200769,8.90322581 6.15384615,8.90322581 L16.1538462,8.90322581 Z M16.1538462,6.58064516 C16.3656846,6.58064516 16.5384615,6.40675355 16.5384615,6.19354839 C16.5384615,5.98034323 16.3656846,5.80645161 16.1538462,5.80645161 L6.15384615,5.80645161 C5.94200769,5.80645161 5.76923077,5.98034323 5.76923077,6.19354839 C5.76923077,6.40675355 5.94200769,6.58064516 6.15384615,6.58064516 L16.1538462,6.58064516 Z" id="Shape" fill="#026E91" fill-rule="nonzero"></path>
                <path d="M2.69230769,22.0645161 L17.6923077,22.0645161 L17.6923077,23.6129032 C17.6923077,23.8261084 17.5195308,24 17.3076923,24 L0.384615385,24 C0.172776923,24 0,23.8261084 0,23.6129032 L0,2.70967742 C0,2.49647226 0.172776923,2.32258065 0.384615385,2.32258065 L1.92307692,2.32258065 L1.92307692,21.2903226 C1.92307692,21.7167484 2.26863077,22.0645161 2.69230769,22.0645161 Z" id="Path" fill="#919799"></path>
            </g>
        </g>
    </g>
</svg>