<?xml version="1.0" encoding="UTF-8"?>
<svg width="21px" height="21px" viewBox="0 0 21 21" version="1.1" xmlns="http://www.w3.org/2000/svg" xmlns:xlink="http://www.w3.org/1999/xlink">
    <!-- Generator: Sketch 45 (43475) - http://www.bohemiancoding.com/sketch -->
    <title>Artboard 2 Copy 5</title>
    <desc>Created with Sketch.</desc>
    <defs></defs>
    <g id="Symbols" stroke="none" stroke-width="1" fill="none" fill-rule="evenodd">
        <g id="Artboard-2-Copy-5" fill="#B5D451">
            <path d="M10.9181297,10.3678559 L10.9181297,5.75 C10.9181297,5.33578644 10.5823433,5 10.1681297,5 C9.75391614,5 9.4181297,5.33578644 9.4181297,5.75 L9.4181297,10.7404363 C9.41671331,10.8595203 9.44359118,10.9780209 9.49707704,11.0852915 C9.55778388,11.2021367 9.63785448,11.2935342 9.73502798,11.3623842 L13.7723757,14.295689 C14.1074815,14.5391576 14.5765088,14.464871 14.8199774,14.1297652 C15.063446,13.7946594 14.9891594,13.3256321 14.6540536,13.0821635 L10.9181297,10.3678559 Z M10.30896,17.6179199 C6.27233284,17.6179199 3,14.3455871 3,10.30896 C3,6.27233284 6.27233284,3 10.30896,3 C14.3455871,3 17.6179199,6.27233284 17.6179199,10.30896 C17.6179199,14.3455871 14.3455871,17.6179199 10.30896,17.6179199 Z" id="Combined-Shape"></path>
        </g>
    </g>
</svg>