<?xml version="1.0" encoding="UTF-8"?>
<svg width="36px" height="28px" viewBox="0 0 36 28" version="1.1" xmlns="http://www.w3.org/2000/svg" xmlns:xlink="http://www.w3.org/1999/xlink">
    <!-- Generator: Sketch 45 (43475) - http://www.bohemiancoding.com/sketch -->
    <title>Artboard Copy 8</title>
    <desc>Created with Sketch.</desc>
    <defs></defs>
    <g id="Symbols" stroke="none" stroke-width="1" fill="none" fill-rule="evenodd">
        <g id="Artboard-Copy-8">
            <g id="Group-26" transform="translate(6.000000, 3.000000)">
                <path d="M22.5497595,7.13206857 L20.9499568,5.54008115 L15.3815703,0 L12.5214786,2.86785681 L14.4304859,4.76706987 L14.2171788,6.17021309 L10.7348707,9.67130791 L7.97449906,12.445206 L1.00086499,19.4549104 C0.959769646,20.5928852 2.39128358,22.02243 3.52530064,21.9793458 L10.4999364,14.9696414 L13.2592811,12.1959688 L16.7486029,8.68911267 L18.0842141,8.40242719 L19.692834,10.0032068 L19.1664048,11.0951917 L20.4452801,12.3672035 L24.8436291,7.95532808 C24.4121105,7.52871904 23.9815938,7.10110804 23.551052,6.674499 L22.5497595,7.13206857 Z" id="Page-1-Copy-2" fill="#919799"></path>
                <path d="M10.8912416,9.22731832 L13.415652,11.7519792 L16.9508134,15.2861386 C17.8706868,15.1794801 18.8276327,15.4779136 19.5331119,16.1833928 C20.758157,17.4075361 20.758157,19.3927673 19.5331119,20.6178126 C18.3079667,21.8418807 16.3227605,21.8418807 15.0986924,20.6178126 C14.4020054,19.9210501 14.1016131,18.977806 14.1984825,18.067827 L10.6563073,14.5256518 L8.13086997,12.0012164 L4.85095757,8.72130404 C1.26389442,9.83573281 -0.901488769,6.67029421 0.363684461,3.58626477 L2.57698683,5.79858998 C3.9947837,7.23494814 6.11222341,5.11660667 4.69440149,3.69878475 L2.47228213,1.47666539 C5.15327361,-0.10843356 9.00858595,2.47586889 7.70526288,6.04133957 L10.8912416,9.22731832 Z M16.0113167,19.772134 C16.750111,20.5099014 17.9477775,20.5099014 18.6855449,19.772134 C19.4242892,19.0343165 19.4242892,17.83665 18.6855449,17.0979057 C17.9477274,16.3591615 16.7500609,16.3591615 16.0113167,17.0979057 C15.2725724,17.8357232 15.2725724,19.0333897 16.0113167,19.772134 Z" id="Page-1-Copy" fill="#026E91"></path>
            </g>
        </g>
    </g>
</svg>