<?xml version="1.0" encoding="UTF-8"?>
<svg width="36px" height="28px" viewBox="0 0 36 28" version="1.1" xmlns="http://www.w3.org/2000/svg" xmlns:xlink="http://www.w3.org/1999/xlink">
    <!-- Generator: Sketch 45 (43475) - http://www.bohemiancoding.com/sketch -->
    <title>Artboard Copy 11</title>
    <desc>Created with Sketch.</desc>
    <defs></defs>
    <g id="Symbols" stroke="none" stroke-width="1" fill="none" fill-rule="evenodd">
        <g id="Artboard-Copy-11">
            <g id="Group-33" transform="translate(5.000000, 1.000000)">
                <path d="M11.2443878,20.5555179 L7.91020408,17.2213342 C7.41992347,16.7310536 6.62571429,16.7310536 6.13545918,17.2213342 C5.64520408,17.7116148 5.64517857,18.505824 6.13545918,18.9960791 L11.5642857,24.4249056 C11.6001582,24.4607781 11.6469949,24.4747296 11.6858571,24.5056224 C11.7645791,24.5733827 11.8512755,24.632176 11.9459337,24.6790128 C11.9618776,24.6859872 11.9748316,24.696949 11.9907755,24.703926 C12.1462296,24.7726837 12.3176122,24.8135408 12.4989898,24.8135408 C12.680352,24.8135408 12.85075,24.7736811 13.0062092,24.7049235 C13.0241454,24.6979464 13.0390944,24.6859898 13.0560332,24.6780179 C13.1477092,24.6321786 13.2314158,24.5753801 13.3091429,24.5106071 C13.3490026,24.4787194 13.3978316,24.463773 13.4347015,24.4269031 L18.8635281,18.9980765 C19.3538087,18.5077959 19.3538087,17.7135867 18.8635281,17.2233316 C18.3732474,16.733051 17.5790383,16.733051 17.0887832,17.2233316 L13.7535791,20.5585357 L13.7665332,6.16822959 C13.3500026,6.12637755 12.9264821,6.10345663 12.4989821,6.10345663 C12.0675026,6.10345663 11.6419923,6.126375 11.2214821,6.16922449 L11.2434056,20.5564694 L11.2443878,20.5555179 Z" id="Fill-1" fill="#026E91" transform="translate(12.499498, 15.458499) scale(1, -1) translate(-12.499498, -15.458499) "></path>
                <path d="M16.2428571,0.134464796 L16.2428571,2.81711786 C19.8112245,4.29091888 22.3303571,7.79951582 22.3303571,11.8931383 C22.3303571,17.3140566 17.9209184,21.7234954 12.5,21.7234954 C7.07908163,21.7234954 2.66964286,17.3140566 2.66964286,11.8931383 C2.66964286,7.80257704 5.18479592,4.2969648 8.74821429,2.82017908 L8.74821429,0.13752602 C3.76862245,1.72594439 0.159438265,6.38650561 0.159438265,11.8931383 C0.159438265,18.7081893 5.68494898,24.233699 12.5,24.233699 C19.3160714,24.233699 24.8405612,18.7092097 24.8405612,11.8931383 C24.8405612,6.38242398 21.2283163,1.71992398 16.2428571,0.134464796" id="Fill-2" fill="#919799" transform="translate(12.500000, 12.184082) scale(1, -1) translate(-12.500000, -12.184082) "></path>
            </g>
        </g>
    </g>
</svg>