<?xml version="1.0" encoding="UTF-8"?>
<svg width="40px" height="30px" viewBox="0 0 40 30" version="1.1" xmlns="http://www.w3.org/2000/svg" xmlns:xlink="http://www.w3.org/1999/xlink">
    <!-- Generator: Sketch 45.2 (43514) - http://www.bohemiancoding.com/sketch -->
    <title>Shape</title>
    <desc>Created with Sketch.</desc>
    <defs></defs>
    <g id="CSP" stroke="none" stroke-width="1" fill="none" fill-rule="evenodd">
        <g id="2-Company-Account" transform="translate(-438.000000, -434.000000)" fill-rule="nonzero" fill="#000000">
            <g id="Group-7" transform="translate(438.000000, 428.000000)">
                <path d="M26.6666667,27.6666667 L21.6666667,27.6666667 L21.6666667,36 L18.3333333,36 L18.3333333,27.6666667 L13.3333333,27.6666667 L20,21 L26.6666667,27.6666667 Z M32.465,17.82 C32.1116667,11.235 26.6766667,6 20,6 C13.3233333,6 7.88833333,11.235 7.535,17.82 C3.25166667,18.5916667 0,22.33 0,26.8333333 C0,31.895 4.105,36 9.16666667,36 L15,36 L15,32.6666667 L9.16666667,32.6666667 C5.95,32.6666667 3.33333333,30.05 3.33333333,26.8333333 C3.33333333,22.1716667 7.465,20.445 10.7216667,20.6333333 C10.4433333,13.6033333 14.4016667,9.33333333 20,9.33333333 C25.755,9.33333333 29.8183333,13.995 29.2783333,20.6333333 C32.1866667,20.5566667 36.6666667,21.885 36.6666667,26.8333333 C36.6666667,30.05 34.05,32.6666667 30.8333333,32.6666667 L25,32.6666667 L25,36 L30.8333333,36 C35.895,36 40,31.895 40,26.8333333 C40,22.33 36.7483333,18.5916667 32.465,17.82 Z" id="Shape"></path>
            </g>
        </g>
    </g>
</svg>