<?xml version="1.0" encoding="UTF-8"?>
<svg width="21px" height="21px" viewBox="0 0 21 21" version="1.1" xmlns="http://www.w3.org/2000/svg" xmlns:xlink="http://www.w3.org/1999/xlink">
    <!-- Generator: Sketch 45 (43475) - http://www.bohemiancoding.com/sketch -->
    <title>Artboard 2 Copy 2</title>
    <desc>Created with Sketch.</desc>
    <defs></defs>
    <g id="Symbols" stroke="none" stroke-width="1" fill="none" fill-rule="evenodd">
        <g id="Artboard-2-Copy-2" fill-rule="nonzero" fill="#B5D451">
            <path d="M10.5,5.58056641 C6.57629778,5.58056641 3.27584423,7.86100314 2.29799722,10.4811104 C3.27574371,13.1012679 6.57604647,15.3816544 10.5,15.3816544 C14.4239535,15.3816544 17.7241558,13.1012177 18.7020028,10.4811104 C17.7242563,7.86095288 14.4239535,5.58056641 10.5,5.58056641 Z M10.5,14.0004549 C8.55626834,14.0004549 6.98065549,12.4248672 6.98065549,10.4811104 C6.98065549,8.5373536 8.55624321,6.96176588 10.5,6.96176588 C12.4437568,6.96176588 14.0203498,8.5373536 14.0203498,10.4811104 C14.0203498,12.4248672 12.4437819,14.0004549 10.5,14.0004549 Z M10.5,8.2379178 C9.26111735,8.2379178 8.25685766,9.24217748 8.25685766,10.4810601 C8.25685766,11.7199428 9.26111735,12.7242025 10.5,12.7242025 C11.7388827,12.7242025 12.7431423,11.7199428 12.7431423,10.4810601 C12.7431423,9.24217748 11.7388827,8.2379178 10.5,8.2379178 Z" id="Shape"></path>
        </g>
    </g>
</svg>