<?xml version="1.0" encoding="UTF-8"?>
<svg width="36px" height="28px" viewBox="0 0 36 28" version="1.1" xmlns="http://www.w3.org/2000/svg" xmlns:xlink="http://www.w3.org/1999/xlink">
    <!-- Generator: Sketch 45 (43475) - http://www.bohemiancoding.com/sketch -->
    <title>Artboard Copy 13</title>
    <desc>Created with Sketch.</desc>
    <defs></defs>
    <g id="Symbols" stroke="none" stroke-width="1" fill="none" fill-rule="evenodd">
        <g id="Artboard-Copy-13">
            <g id="Group-37" transform="translate(3.000000, 5.000000)">
                <path d="M11.482283,13.4591859 L11.481036,18.3879746 C11.481036,18.6498436 11.3070799,18.8232911 11.0887834,18.8232911 L0.392252694,18.8232911 C0.17395615,18.8232911 0,18.6056329 0,18.3879746 L0,11.6405689 C0,9.81084656 1.44110647,8.33146697 3.27444816,8.33146697 L8.07995204,8.33146697 C8.50381133,8.19406791 8.98261447,8.23393546 9.39453742,8.48144374 L15.9600742,12.4264162 C16.7155004,12.8803221 16.9599309,13.8606794 16.5060251,14.6161057 C16.0521192,15.3715319 15.0717619,15.6159624 14.3163357,15.1620565 L11.482283,13.4591859 Z M5.9313433,7.92415331 C3.79269206,7.92415331 2.08897485,6.14035689 2.08897485,3.96207666 C2.08897485,1.78549416 3.79273572,0 5.9313433,0 C8.07169726,0 9.77371175,1.78549416 9.77371175,3.96207666 C9.77371175,6.13865916 8.06995089,7.92415331 5.9313433,7.92415331 Z" id="Combined-Shape" fill="#919799"></path>
                <path d="M21.920048,8.33146697 L26.7255518,8.33146697 C28.5588935,8.33146697 30,9.81084656 30,11.6405689 L30,18.3879746 C30,18.6056329 29.8260438,18.8232911 29.6077473,18.8232911 L18.9112166,18.8232911 C18.6929201,18.8232911 18.518964,18.6498436 18.518964,18.3879746 L18.517717,13.4591859 L15.6836643,15.1620565 C14.9282381,15.6159624 13.9478808,15.3715319 13.4939749,14.6161057 C13.0400691,13.8606794 13.2844996,12.8803221 14.0399258,12.4264162 L20.6054626,8.48144374 C21.0173855,8.23393546 21.4961887,8.19406791 21.920048,8.33146697 Z M24.0686567,7.92415331 C21.9300491,7.92415331 20.2262882,6.13865916 20.2262882,3.96207666 C20.2262882,1.78549416 21.9283027,0 24.0686567,0 C26.2072643,0 27.9110251,1.78549416 27.9110251,3.96207666 C27.9110251,6.14035689 26.2073079,7.92415331 24.0686567,7.92415331 Z" id="Combined-Shape" fill="#026E91"></path>
            </g>
        </g>
    </g>
</svg>