<svg version="1.1" xmlns="http://www.w3.org/2000/svg" xmlns:xlink="http://www.w3.org/1999/xlink" x="0px" y="0px"
	 width="29.8px" height="16.4px" viewBox="0 0 29.8 16.4" enable-background="new 0 0 29.8 16.4" xml:space="preserve">
<g id="eye_x5F_open">
	<path fill="#989898" d="M14.9,0C5.1,0,0,8.9,0,8.9s7.1,7.5,14.9,7.5s14.9-7.5,14.9-7.5S24.8,0,14.9,0z M14.1,9.3L13.4,10
		c-0.5-0.3-0.9-0.9-1.2-1.5L13,7.7C13.1,8.4,13.5,9,14.1,9.3z M10.9,7.5c0,2.2,1.8,4,4,4s4-1.8,4-4c0-1.4-0.7-2.6-1.7-3.3
		c1.1,0.2,2.2,0.4,3.2,0.8C20.8,5.8,21,6.6,21,7.5c0,3.3-2.7,6-6,6s-6-2.7-6-6C9,6.6,9.2,5.8,9.5,5c1-0.4,2.1-0.7,3.2-0.8
		C11.6,4.9,10.9,6.1,10.9,7.5z M7,6.1C6.9,6.6,6.9,7,6.9,7.5c0,2.2,0.9,4.2,2.3,5.6C6.3,11.8,4,9.9,2.9,8.9C3.7,8.1,5.2,7,7,6.1z
		 M20.6,13.2c1.5-1.5,2.4-3.5,2.4-5.7c0-0.5-0.1-1-0.1-1.5c2.1,1,3.8,2.2,4.6,2.9C26.3,9.9,23.8,11.9,20.6,13.2z"/>
</g>
</svg>
