<svg version="1.1" xmlns="http://www.w3.org/2000/svg" xmlns:xlink="http://www.w3.org/1999/xlink" x="0px" y="0px"
	 width="24.1px" height="24.1px" viewBox="0 0 24.1 24.1" enable-background="new 0 0 24.1 24.1" xml:space="preserve">
<g id="pencil">
	<path fill="#989898" d="M17.7,2.2l0.5,0.5l3.1,3.1l0.5,0.5l0.5-0.5l1-1l0.5-0.5c0.3-0.3,0.3-0.7,0-1l-3.1-3.1c-0.3-0.3-0.7-0.3-1,0
		l-0.5,0.5l-1,1L17.7,2.2z"/>
	<rect x="3" y="9" transform="matrix(-0.7071 0.7071 -0.7071 -0.7071 29.0981 11.7749)" fill="#989898" width="18.2" height="5.8" />
	<path fill="#989898" d="M2.4,17.5L0,23.7C-0.1,24,0,24.1,0.3,24l6.2-2.4L2.4,17.5z"/>
</g>
</svg>
