<svg version="1.1" xmlns="http://www.w3.org/2000/svg" xmlns:xlink="http://www.w3.org/1999/xlink" x="0px" y="0px"
	 width="24px" height="24px" viewBox="0 0 24 24" enable-background="new 0 0 24 24" xml:space="preserve">
<g id="clock_1_">
	<g id="clock">
		<path fill="#989898" d="M12,0C5.4,0,0,5.4,0,12s5.4,12,12,12s12-5.4,12-12S18.6,0,12,0z M17.2,7.5c0.2,0.2,0.2,0.5,0,0.7l-3.3,3.3
			c0,0.2,0.1,0.3,0.1,0.5c0,1.1-0.9,2-2,2c-0.7,0-1.4-0.5-1.7-1H7.5C7.2,13,7,12.8,7,12.5v-1C7,11.2,7.2,11,7.5,11h2.8
			c0.3-0.5,1-1,1.7-1c0.2,0,0.4,0,0.6,0.1l3.2-3.2c0.2-0.2,0.5-0.2,0.7,0L17.2,7.5z M12,21c-5,0-9-4-9-9s4-9,9-9s9,4,9,9
			S17,21,12,21z"/>
	</g>
</g>
</svg>
