<svg version="1.1" xmlns="http://www.w3.org/2000/svg" xmlns:xlink="http://www.w3.org/1999/xlink" x="0px" y="0px"
	 width="24.1px" height="21px" viewBox="0 0 24.1 21" enable-background="new 0 0 24.1 21" xml:space="preserve">
<g id="thumbs_x5F_up">
	<polygon opacity="0.3" fill="#989898" enable-background="new    " points="21,13 22,12 22,10 20,10 14,19 17,19 	"/>
	<path fill="#989898" d="M14,2v3l-1,5h9v2l-1,1l-4,6h-5l-2-1H8v-8l3-4l2-4H14 M14,0h-1c-0.8,0-1.5,0.4-1.8,1.1L9.3,4.9L6.4,8.8
		C6.1,9.1,6,9.6,6,10v8c0,1.1,0.9,2,2,2h1.5l1.6,0.8c0.3,0.1,0.6,0.2,0.9,0.2h5c0.7,0,1.3-0.3,1.7-0.9l3.9-5.8l0.9-0.9
		c0.4-0.4,0.6-0.9,0.6-1.4v-2c0-1.1-0.9-2-2-2h-6.6c0,0,0.6-2.9,0.6-3V2C16,0.9,15.1,0,14,0L14,0z M4,8H0v13h4c0.5,0,1-0.5,1-1V9
		C5,8.5,4.5,8,4,8z"/>
</g>
</svg>
