<svg version="1.1" xmlns="http://www.w3.org/2000/svg" xmlns:xlink="http://www.w3.org/1999/xlink" x="0px" y="0px"
	 width="18.3px" height="25.2px" viewBox="0 0 18.3 25.2" enable-background="new 0 0 18.3 25.2" xml:space="preserve">
<g id="lightbulb">
	<g>
		<path fill="#989898" d="M9.2,0L9.2,0C9.2,0,9.1,0,9.2,0C3.8,0,0,3.9,0,9.2c0,2.8,1.3,4.5,2.5,6c1.1,1.5,2.1,2.7,2.1,5
			c0,0.8,0.2,1.4,0.6,1.8v1.2c0,0.3,1,1,1,1v0.5c0,0.3,0.2,0.5,0.5,0.5h5c0.3,0,0.5-0.2,0.5-0.5v-0.5c0,0,1-0.7,1-1v-1.3
			c0.3-0.4,0.5-1,0.5-1.7c0-2.2,1-3.5,2.1-5c1.2-1.5,2.5-3.2,2.5-6C18.2,3.9,14.5,0,9.2,0z M14.2,14c-1.2,1.5-2.5,3.3-2.5,6.2H9.4
			H8.9H6.5c0-2.9-1.3-4.7-2.5-6.2c-1.1-1.4-2-2.7-2-4.8C2,5,4.9,2,9.2,2c4,0,7.1,3,7.1,7.2C16.3,11.3,15.3,12.6,14.2,14z"/>
	</g>
	<g opacity="0.3">
		<path fill="#989898" d="M9.2,2C8.8,2,8.4,2,8,2.1c0.1,0.3,0.2,0.7,0.2,1.1c0,1.7-1.3,3-3,3c-0.8,0-1.6-0.3-2.1-0.9
			c-0.7,1.1-1,2.4-1,3.9c0,2.1,0.9,3.4,2,4.8c1.2,1.5,2.5,3.3,2.5,6.2h5.1c0-2.9,1.3-4.7,2.5-6.2c1.1-1.4,2.1-2.7,2.1-4.8
			C16.3,5,13.2,2,9.2,2z"/>
	</g>
</g>
</svg>
