<svg version="1.1" xmlns="http://www.w3.org/2000/svg" xmlns:xlink="http://www.w3.org/1999/xlink" x="0px" y="0px"
	 width="23.3px" height="18.8px" viewBox="0 0 23.3 18.8" enable-background="new 0 0 23.3 18.8" xml:space="preserve">
<g id="ok_x5F_2">
	<path fill="#259b24" d="M23.2,3.5c0.2,0.2,0.2,0.5,0,0.7L8.7,18.7c-0.2,0.2-0.5,0.2-0.7,0l-3.2-3.2c-0.2-0.2-0.5-0.5-0.7-0.7
		l-3.9-3.9c-0.2-0.2-0.2-0.5,0-0.7L3.4,7c0.2-0.2,0.5-0.2,0.7,0L8,10.9c0.2,0.2,0.5,0.2,0.7,0L19.2,0.2c0.2-0.2,0.5-0.2,0.7,0
		L23.2,3.5z"/>
</g>
</svg>
